<mxfile host="app.diagrams.net" agent="Mozilla/5.0 (Windows NT 10.0; Win64; x64) AppleWebKit/537.36 (KHTML, like Gecko) Chrome/138.0.0.0 Safari/537.36" version="28.0.7">
  <diagram name="第 1 页" id="XN6WbOP7wRev5Zxsz_oX">
    <mxGraphModel dx="5290" dy="1770" grid="1" gridSize="10" guides="1" tooltips="1" connect="1" arrows="1" fold="1" page="1" pageScale="1" pageWidth="827" pageHeight="1169" math="0" shadow="0">
      <root>
        <mxCell id="0" />
        <mxCell id="1" parent="0" />
        <mxCell id="umgCvMGF8Q4jKKfUTwUB-13" value="&lt;font style=&quot;font-size: 15px; color: rgb(255, 0, 0);&quot;&gt;荣成机房&lt;/font&gt;" style="whiteSpace=wrap;html=1;fillColor=#dae8fc;strokeColor=#FF0000;rounded=0;align=right;verticalAlign=top;strokeWidth=2;" parent="1" vertex="1">
          <mxGeometry x="-3550" y="320" width="5854" height="1440" as="geometry" />
        </mxCell>
        <mxCell id="7kykOVdzn0JzqWnfIJqe-28" value="" style="group" parent="1" vertex="1" connectable="0">
          <mxGeometry x="-40" y="610" width="400" height="625" as="geometry" />
        </mxCell>
        <mxCell id="7kykOVdzn0JzqWnfIJqe-13" value="&lt;h2 style=&quot;&quot;&gt;&lt;span style=&quot;background-color: transparent; color: light-dark(rgb(0, 0, 0), rgb(255, 255, 255));&quot;&gt;营销云生产环境&lt;/span&gt;&lt;/h2&gt;" style="rounded=0;whiteSpace=wrap;html=1;align=center;verticalAlign=top;fillColor=#cce5ff;strokeColor=#36393d;dashed=1;strokeWidth=2;" parent="7kykOVdzn0JzqWnfIJqe-28" vertex="1">
          <mxGeometry width="400" height="625" as="geometry" />
        </mxCell>
        <mxCell id="7kykOVdzn0JzqWnfIJqe-18" value="&lt;div&gt;&lt;span style=&quot;color: rgb(50, 50, 50); font-family: &amp;quot;Microsoft YaHei&amp;quot;, 微软雅黑, Arial; font-size: 13px; background-color: rgba(255, 255, 255, 0.01);&quot;&gt;自在威海api接口&lt;/span&gt;&lt;/div&gt;&lt;span style=&quot;color: rgb(50, 50, 50); font-family: &amp;quot;Microsoft YaHei&amp;quot;, 微软雅黑, Arial; font-size: 13px; background-color: rgba(255, 255, 255, 0.01);&quot;&gt;zzwh-api-01&lt;/span&gt;&lt;br style=&quot;color: rgb(50, 50, 50); font-family: &amp;quot;Microsoft YaHei&amp;quot;, 微软雅黑, Arial; font-size: 13px;&quot;&gt;&lt;span style=&quot;color: rgb(50, 50, 50); font-family: &amp;quot;Microsoft YaHei&amp;quot;, 微软雅黑, Arial; font-size: 13px; background-color: rgba(255, 255, 255, 0.01);&quot;&gt;10.25.1.19&lt;/span&gt;&lt;br style=&quot;color: rgb(50, 50, 50); font-family: &amp;quot;Microsoft YaHei&amp;quot;, 微软雅黑, Arial; font-size: 13px;&quot;&gt;&lt;span style=&quot;color: rgb(50, 50, 50); font-family: &amp;quot;Microsoft YaHei&amp;quot;, 微软雅黑, Arial; font-size: 13px; background-color: rgba(255, 255, 255, 0.01);&quot;&gt;2C/4G&lt;/span&gt;" style="rounded=0;whiteSpace=wrap;html=1;" parent="7kykOVdzn0JzqWnfIJqe-28" vertex="1">
          <mxGeometry x="25" y="60" width="150" height="70" as="geometry" />
        </mxCell>
        <mxCell id="7kykOVdzn0JzqWnfIJqe-19" value="&lt;div&gt;&lt;div&gt;&lt;span style=&quot;color: rgb(50, 50, 50); font-family: &amp;quot;Microsoft YaHei&amp;quot;, 微软雅黑, Arial; font-size: 13px; background-color: rgba(255, 255, 255, 0.01);&quot;&gt;自在威海api接口&lt;/span&gt;&lt;/div&gt;&lt;span style=&quot;color: rgb(50, 50, 50); font-family: &amp;quot;Microsoft YaHei&amp;quot;, 微软雅黑, Arial; font-size: 13px; background-color: rgba(255, 255, 255, 0.01);&quot;&gt;zzwh-api-02&lt;/span&gt;&lt;/div&gt;&lt;span style=&quot;color: rgb(50, 50, 50); font-family: &amp;quot;Microsoft YaHei&amp;quot;, 微软雅黑, Arial; font-size: 13px; background-color: rgba(255, 255, 255, 0.01);&quot;&gt;10.25.1.202&lt;/span&gt;&lt;br style=&quot;color: rgb(50, 50, 50); font-family: &amp;quot;Microsoft YaHei&amp;quot;, 微软雅黑, Arial; font-size: 13px;&quot;&gt;&lt;span style=&quot;color: rgb(50, 50, 50); font-family: &amp;quot;Microsoft YaHei&amp;quot;, 微软雅黑, Arial; font-size: 13px; background-color: rgba(255, 255, 255, 0.01);&quot;&gt;2C/4G&lt;/span&gt;" style="whiteSpace=wrap;html=1;rounded=0;" parent="7kykOVdzn0JzqWnfIJqe-28" vertex="1">
          <mxGeometry x="225" y="60" width="150" height="70" as="geometry" />
        </mxCell>
        <mxCell id="0cAWCuBhK8sL3BYv6XPo-38" value="&lt;div&gt;&lt;div&gt;&lt;span style=&quot;color: rgb(50, 50, 50); font-family: &amp;quot;Microsoft YaHei&amp;quot;, 微软雅黑, Arial; font-size: 13px; background-color: rgba(255, 255, 255, 0.01);&quot;&gt;自在威海api接口&lt;/span&gt;&lt;/div&gt;&lt;span style=&quot;color: rgb(50, 50, 50); font-family: &amp;quot;Microsoft YaHei&amp;quot;, 微软雅黑, Arial; font-size: 13px; background-color: rgba(255, 255, 255, 0.01);&quot;&gt;zzwh-api-03&lt;/span&gt;&lt;/div&gt;&lt;span style=&quot;color: rgb(50, 50, 50); font-family: &amp;quot;Microsoft YaHei&amp;quot;, 微软雅黑, Arial; font-size: 13px; background-color: rgba(255, 255, 255, 0.01);&quot;&gt;10.25.1.203&lt;/span&gt;&lt;br style=&quot;color: rgb(50, 50, 50); font-family: &amp;quot;Microsoft YaHei&amp;quot;, 微软雅黑, Arial; font-size: 13px;&quot;&gt;&lt;span style=&quot;color: rgb(50, 50, 50); font-family: &amp;quot;Microsoft YaHei&amp;quot;, 微软雅黑, Arial; font-size: 13px; background-color: rgba(255, 255, 255, 0.01);&quot;&gt;2C/4G&lt;/span&gt;" style="rounded=0;whiteSpace=wrap;html=1;" parent="7kykOVdzn0JzqWnfIJqe-28" vertex="1">
          <mxGeometry x="25" y="150" width="150" height="70" as="geometry" />
        </mxCell>
        <mxCell id="0cAWCuBhK8sL3BYv6XPo-39" value="&lt;div&gt;&lt;div&gt;&lt;span style=&quot;color: rgb(50, 50, 50); font-family: &amp;quot;Microsoft YaHei&amp;quot;, 微软雅黑, Arial; font-size: 13px; background-color: rgba(255, 255, 255, 0.01);&quot;&gt;自在威海api接口&lt;/span&gt;&lt;/div&gt;&lt;span style=&quot;color: rgb(50, 50, 50); font-family: &amp;quot;Microsoft YaHei&amp;quot;, 微软雅黑, Arial; font-size: 13px; background-color: rgba(255, 255, 255, 0.01);&quot;&gt;zzwh-api-04&lt;/span&gt;&lt;/div&gt;&lt;span style=&quot;color: rgb(50, 50, 50); font-family: &amp;quot;Microsoft YaHei&amp;quot;, 微软雅黑, Arial; font-size: 13px; background-color: rgba(255, 255, 255, 0.01);&quot;&gt;10.25.1.204&lt;/span&gt;&lt;br style=&quot;color: rgb(50, 50, 50); font-family: &amp;quot;Microsoft YaHei&amp;quot;, 微软雅黑, Arial; font-size: 13px;&quot;&gt;&lt;span style=&quot;color: rgb(50, 50, 50); font-family: &amp;quot;Microsoft YaHei&amp;quot;, 微软雅黑, Arial; font-size: 13px; background-color: rgba(255, 255, 255, 0.01);&quot;&gt;2C/4G&lt;/span&gt;" style="whiteSpace=wrap;html=1;rounded=0;" parent="7kykOVdzn0JzqWnfIJqe-28" vertex="1">
          <mxGeometry x="225" y="150" width="150" height="70" as="geometry" />
        </mxCell>
        <mxCell id="0cAWCuBhK8sL3BYv6XPo-40" value="&lt;div&gt;&lt;span style=&quot;color: rgb(50, 50, 50); font-family: &amp;quot;Microsoft YaHei&amp;quot;, 微软雅黑, Arial; font-size: 13px; background-color: rgba(255, 255, 255, 0.01);&quot;&gt;自在威海后台管理 | h5&lt;/span&gt;&lt;/div&gt;&lt;span style=&quot;color: rgb(50, 50, 50); font-family: &amp;quot;Microsoft YaHei&amp;quot;, 微软雅黑, Arial; font-size: 13px; background-color: rgba(255, 255, 255, 0.01);&quot;&gt;zzwh-nginx-01&lt;/span&gt;&lt;br style=&quot;color: rgb(50, 50, 50); font-family: &amp;quot;Microsoft YaHei&amp;quot;, 微软雅黑, Arial; font-size: 13px;&quot;&gt;&lt;span style=&quot;color: rgb(50, 50, 50); font-family: &amp;quot;Microsoft YaHei&amp;quot;, 微软雅黑, Arial; font-size: 13px; background-color: rgba(255, 255, 255, 0.01);&quot;&gt;10.25.1.20&lt;/span&gt;&lt;br style=&quot;color: rgb(50, 50, 50); font-family: &amp;quot;Microsoft YaHei&amp;quot;, 微软雅黑, Arial; font-size: 13px;&quot;&gt;&lt;span style=&quot;color: rgb(50, 50, 50); font-family: &amp;quot;Microsoft YaHei&amp;quot;, 微软雅黑, Arial; font-size: 13px; background-color: rgba(255, 255, 255, 0.01);&quot;&gt;2C/4G&lt;/span&gt;" style="rounded=0;whiteSpace=wrap;html=1;" parent="7kykOVdzn0JzqWnfIJqe-28" vertex="1">
          <mxGeometry x="25" y="240" width="150" height="70" as="geometry" />
        </mxCell>
        <mxCell id="0cAWCuBhK8sL3BYv6XPo-41" value="&lt;div&gt;&lt;span style=&quot;color: rgb(50, 50, 50); font-family: &amp;quot;Microsoft YaHei&amp;quot;, 微软雅黑, Arial; font-size: 13px; background-color: rgba(255, 255, 255, 0.01);&quot;&gt;自在威海后台管理 | h5&lt;/span&gt;&lt;/div&gt;&lt;span style=&quot;color: rgb(50, 50, 50); font-family: &amp;quot;Microsoft YaHei&amp;quot;, 微软雅黑, Arial; font-size: 13px; background-color: rgba(255, 255, 255, 0.01);&quot;&gt;zzwh-nginx-02&lt;/span&gt;&lt;br style=&quot;color: rgb(50, 50, 50); font-family: &amp;quot;Microsoft YaHei&amp;quot;, 微软雅黑, Arial; font-size: 13px;&quot;&gt;&lt;span style=&quot;color: rgb(50, 50, 50); font-family: &amp;quot;Microsoft YaHei&amp;quot;, 微软雅黑, Arial; font-size: 13px; background-color: rgba(255, 255, 255, 0.01);&quot;&gt;10.25.1.89&lt;/span&gt;&lt;br style=&quot;color: rgb(50, 50, 50); font-family: &amp;quot;Microsoft YaHei&amp;quot;, 微软雅黑, Arial; font-size: 13px;&quot;&gt;&lt;span style=&quot;color: rgb(50, 50, 50); font-family: &amp;quot;Microsoft YaHei&amp;quot;, 微软雅黑, Arial; font-size: 13px; background-color: rgba(255, 255, 255, 0.01);&quot;&gt;2C/4G&lt;/span&gt;" style="whiteSpace=wrap;html=1;rounded=0;" parent="7kykOVdzn0JzqWnfIJqe-28" vertex="1">
          <mxGeometry x="225" y="240" width="150" height="70" as="geometry" />
        </mxCell>
        <mxCell id="7kykOVdzn0JzqWnfIJqe-42" value="&lt;h2 style=&quot;&quot;&gt;&lt;span style=&quot;background-color: transparent; color: light-dark(rgb(0, 0, 0), rgb(255, 255, 255));&quot;&gt;景区云生产环境&lt;/span&gt;&lt;/h2&gt;" style="rounded=0;whiteSpace=wrap;html=1;align=center;verticalAlign=top;fillColor=#cce5ff;strokeColor=#FF33FF;dashed=1;strokeWidth=2;" parent="1" vertex="1">
          <mxGeometry x="440" y="610" width="1840" height="830" as="geometry" />
        </mxCell>
        <mxCell id="iITyiV8JnJJ13BIh8I1--13" value="" style="rounded=0;whiteSpace=wrap;html=1;fillColor=none;strokeColor=#FF33FF;strokeWidth=2;" parent="1" vertex="1">
          <mxGeometry x="449.5" y="940" width="1821" height="475" as="geometry" />
        </mxCell>
        <mxCell id="7kykOVdzn0JzqWnfIJqe-49" value="&lt;div&gt;&lt;font face=&quot;Microsoft YaHei, 微软雅黑, Arial&quot; color=&quot;#323232&quot;&gt;&lt;span style=&quot;font-size: 13px; background-color: rgba(255, 255, 255, 0.01);&quot;&gt;登岛管理&lt;/span&gt;&lt;/font&gt;&lt;/div&gt;&lt;span style=&quot;color: rgb(50, 50, 50); font-family: &amp;quot;Microsoft YaHei&amp;quot;, 微软雅黑, Arial; font-size: 13px; background-color: rgba(255, 255, 255, 0.01);&quot;&gt;island-manage&lt;/span&gt;&lt;br style=&quot;color: rgb(50, 50, 50); font-family: &amp;quot;Microsoft YaHei&amp;quot;, 微软雅黑, Arial; font-size: 13px;&quot;&gt;&lt;span style=&quot;color: rgb(50, 50, 50); font-family: &amp;quot;Microsoft YaHei&amp;quot;, 微软雅黑, Arial; font-size: 13px; background-color: rgba(255, 255, 255, 0.01);&quot;&gt;10.25.1.71 | 10.25.1.94&lt;/span&gt;&lt;br style=&quot;color: rgb(50, 50, 50); font-family: &amp;quot;Microsoft YaHei&amp;quot;, 微软雅黑, Arial; font-size: 13px;&quot;&gt;&lt;span style=&quot;color: rgb(50, 50, 50); font-family: &amp;quot;Microsoft YaHei&amp;quot;, 微软雅黑, Arial; font-size: 13px; background-color: rgba(255, 255, 255, 0.01);&quot;&gt;4C/8G&lt;/span&gt;" style="whiteSpace=wrap;html=1;rounded=0;fillColor=#cdeb8b;strokeColor=#36393d;align=center;" parent="1" vertex="1">
          <mxGeometry x="1500" y="1015" width="150" height="70" as="geometry" />
        </mxCell>
        <mxCell id="7kykOVdzn0JzqWnfIJqe-50" value="&lt;div&gt;&lt;font face=&quot;Microsoft YaHei, 微软雅黑, Arial&quot; color=&quot;#323232&quot;&gt;&lt;span style=&quot;font-size: 13px; background-color: rgba(255, 255, 255, 0.01);&quot;&gt;实名检票&lt;/span&gt;&lt;/font&gt;&lt;/div&gt;&lt;span style=&quot;color: rgb(50, 50, 50); font-family: &amp;quot;Microsoft YaHei&amp;quot;, 微软雅黑, Arial; font-size: 13px; background-color: rgba(255, 255, 255, 0.01);&quot;&gt;realname-check&lt;/span&gt;&lt;br style=&quot;color: rgb(50, 50, 50); font-family: &amp;quot;Microsoft YaHei&amp;quot;, 微软雅黑, Arial; font-size: 13px;&quot;&gt;&lt;span style=&quot;color: rgb(50, 50, 50); font-family: &amp;quot;Microsoft YaHei&amp;quot;, 微软雅黑, Arial; font-size: 13px; background-color: rgba(255, 255, 255, 0.01);&quot;&gt;10.25.1.74 | 10.25.1.96 |&amp;nbsp;&lt;/span&gt;&lt;span style=&quot;color: rgb(50, 50, 50); font-family: &amp;quot;Microsoft YaHei&amp;quot;, 微软雅黑, Arial; font-size: 13px; background-color: rgba(255, 255, 255, 0.01);&quot;&gt;10.25.1.117 | 10.25.1.131&lt;/span&gt;&lt;br style=&quot;color: rgb(50, 50, 50); font-family: &amp;quot;Microsoft YaHei&amp;quot;, 微软雅黑, Arial; font-size: 13px;&quot;&gt;&lt;span style=&quot;color: rgb(50, 50, 50); font-family: &amp;quot;Microsoft YaHei&amp;quot;, 微软雅黑, Arial; font-size: 13px; background-color: rgba(255, 255, 255, 0.01);&quot;&gt;4C/8G&lt;/span&gt;" style="rounded=0;whiteSpace=wrap;html=1;fillColor=#cdeb8b;strokeColor=#36393d;align=center;" parent="1" vertex="1">
          <mxGeometry x="1163" y="1015" width="308" height="70" as="geometry" />
        </mxCell>
        <mxCell id="7kykOVdzn0JzqWnfIJqe-51" value="&lt;div&gt;&lt;font face=&quot;Microsoft YaHei, 微软雅黑, Arial&quot; color=&quot;#323232&quot;&gt;&lt;span style=&quot;font-size: 13px; background-color: rgba(255, 255, 255, 0.01);&quot;&gt;旅行社管理&lt;/span&gt;&lt;/font&gt;&lt;/div&gt;&lt;span style=&quot;color: rgb(50, 50, 50); font-family: &amp;quot;Microsoft YaHei&amp;quot;, 微软雅黑, Arial; font-size: 13px; background-color: rgba(255, 255, 255, 0.01);&quot;&gt;travelagency-manage&lt;/span&gt;&lt;br style=&quot;color: rgb(50, 50, 50); font-family: &amp;quot;Microsoft YaHei&amp;quot;, 微软雅黑, Arial; font-size: 13px;&quot;&gt;&lt;span style=&quot;color: rgb(50, 50, 50); font-family: &amp;quot;Microsoft YaHei&amp;quot;, 微软雅黑, Arial; font-size: 13px; background-color: rgba(255, 255, 255, 0.01);&quot;&gt;10.25.1.100 | 10.25.1.75&lt;/span&gt;&lt;br style=&quot;color: rgb(50, 50, 50); font-family: &amp;quot;Microsoft YaHei&amp;quot;, 微软雅黑, Arial; font-size: 13px;&quot;&gt;&lt;span style=&quot;color: rgb(50, 50, 50); font-family: &amp;quot;Microsoft YaHei&amp;quot;, 微软雅黑, Arial; font-size: 13px; background-color: rgba(255, 255, 255, 0.01);&quot;&gt;2C/4G&lt;/span&gt;" style="whiteSpace=wrap;html=1;rounded=0;fillColor=#cdeb8b;strokeColor=#36393d;align=center;" parent="1" vertex="1">
          <mxGeometry x="1918" y="1015" width="150" height="70" as="geometry" />
        </mxCell>
        <mxCell id="7kykOVdzn0JzqWnfIJqe-52" value="&lt;div&gt;&lt;font face=&quot;Microsoft YaHei, 微软雅黑, Arial&quot; color=&quot;#323232&quot;&gt;&lt;span style=&quot;font-size: 13px; background-color: rgba(255, 255, 255, 0.01);&quot;&gt;基地学员班&lt;/span&gt;&lt;/font&gt;&lt;/div&gt;&lt;font face=&quot;Microsoft YaHei, 微软雅黑, Arial&quot; color=&quot;#323232&quot;&gt;&lt;span style=&quot;font-size: 13px; background-color: rgba(255, 255, 255, 0.01);&quot;&gt;base-student&lt;/span&gt;&lt;/font&gt;&lt;br style=&quot;color: rgb(50, 50, 50); font-family: &amp;quot;Microsoft YaHei&amp;quot;, 微软雅黑, Arial; font-size: 13px;&quot;&gt;&lt;span style=&quot;color: rgb(50, 50, 50); font-family: &amp;quot;Microsoft YaHei&amp;quot;, 微软雅黑, Arial; font-size: 13px; background-color: rgba(255, 255, 255, 0.01);&quot;&gt;10.25.1.59 | 10.25.1.92&lt;/span&gt;&lt;br style=&quot;color: rgb(50, 50, 50); font-family: &amp;quot;Microsoft YaHei&amp;quot;, 微软雅黑, Arial; font-size: 13px;&quot;&gt;&lt;span style=&quot;color: rgb(50, 50, 50); font-family: &amp;quot;Microsoft YaHei&amp;quot;, 微软雅黑, Arial; font-size: 13px; background-color: rgba(255, 255, 255, 0.01);&quot;&gt;2C/4G&lt;/span&gt;" style="rounded=0;whiteSpace=wrap;html=1;fillColor=#cdeb8b;strokeColor=#36393d;align=center;" parent="1" vertex="1">
          <mxGeometry x="1710" y="1015" width="150" height="70" as="geometry" />
        </mxCell>
        <mxCell id="7kykOVdzn0JzqWnfIJqe-54" value="&lt;div&gt;&lt;font color=&quot;#323232&quot; face=&quot;Microsoft YaHei, 微软雅黑, Arial&quot;&gt;&lt;span style=&quot;font-size: 13px; background-color: rgba(255, 255, 255, 0.01);&quot;&gt;资金管理&lt;/span&gt;&lt;/font&gt;&lt;/div&gt;&lt;div style=&quot;&quot;&gt;&lt;span style=&quot;background-color: transparent; font-size: 13px;&quot;&gt;&lt;font face=&quot;helvetica, arial, verdana, sans-serif&quot;&gt;capital-manage&lt;/font&gt;&lt;/span&gt;&lt;/div&gt;&lt;span style=&quot;color: rgb(50, 50, 50); font-family: &amp;quot;Microsoft YaHei&amp;quot;, 微软雅黑, Arial; font-size: 13px; background-color: rgba(255, 255, 255, 0.01);&quot;&gt;10.25.1.98 | 10.25.1.69&lt;/span&gt;&lt;div&gt;&lt;span style=&quot;color: rgb(50, 50, 50); font-family: &amp;quot;Microsoft YaHei&amp;quot;, 微软雅黑, Arial; font-size: 13px; background-color: rgba(255, 255, 255, 0.01);&quot;&gt;4C/8G&lt;/span&gt;&lt;/div&gt;" style="rounded=0;whiteSpace=wrap;html=1;fillColor=#cdeb8b;strokeColor=#36393d;align=center;" parent="1" vertex="1">
          <mxGeometry x="510" y="1180" width="150" height="70" as="geometry" />
        </mxCell>
        <mxCell id="7kykOVdzn0JzqWnfIJqe-55" value="&lt;div&gt;&lt;font face=&quot;Microsoft YaHei, 微软雅黑, Arial&quot; color=&quot;#323232&quot;&gt;&lt;span style=&quot;font-size: 13px; background-color: rgba(255, 255, 255, 0.01);&quot;&gt;分销管理&lt;/span&gt;&lt;/font&gt;&lt;/div&gt;&lt;div&gt;&lt;font face=&quot;Microsoft YaHei, 微软雅黑, Arial&quot; color=&quot;#323232&quot;&gt;&lt;span style=&quot;background-color: rgba(255, 255, 255, 0.01);&quot;&gt;&lt;span style=&quot;font-size: 13px;&quot;&gt;distributor-manage&lt;/span&gt;&lt;/span&gt;&lt;/font&gt;&lt;/div&gt;&lt;div&gt;&lt;font face=&quot;Microsoft YaHei, 微软雅黑, Arial&quot; color=&quot;#323232&quot;&gt;&lt;span style=&quot;background-color: rgba(255, 255, 255, 0.01);&quot;&gt;&lt;span style=&quot;font-size: 13px;&quot;&gt;10.25.1.64 | 10.25.1.99&lt;/span&gt;&lt;br style=&quot;background-color: rgb(236, 236, 236); color: rgb(50, 50, 50); font-size: 13px;&quot;&gt;&lt;span style=&quot;color: rgb(50, 50, 50); font-size: 13px; background-color: rgba(255, 255, 255, 0.01);&quot;&gt;4C/8G | 2&lt;/span&gt;&lt;/span&gt;&lt;/font&gt;&lt;span style=&quot;background-color: rgba(255, 255, 255, 0.01); color: rgb(50, 50, 50); font-family: &amp;quot;Microsoft YaHei&amp;quot;, 微软雅黑, Arial; font-size: 13px;&quot;&gt;C/4G&lt;/span&gt;&lt;/div&gt;" style="whiteSpace=wrap;html=1;rounded=0;fillColor=#cdeb8b;strokeColor=#36393d;align=center;" parent="1" vertex="1">
          <mxGeometry x="711" y="1180" width="150" height="70" as="geometry" />
        </mxCell>
        <mxCell id="7kykOVdzn0JzqWnfIJqe-56" value="&lt;div&gt;&lt;font face=&quot;Microsoft YaHei, 微软雅黑, Arial&quot; color=&quot;#323232&quot;&gt;&lt;span style=&quot;font-size: 13px; background-color: rgba(255, 255, 255, 0.01);&quot;&gt;产品中心&lt;/span&gt;&lt;/font&gt;&lt;/div&gt;&lt;span style=&quot;color: rgb(50, 50, 50); font-family: &amp;quot;Microsoft YaHei&amp;quot;, 微软雅黑, Arial; font-size: 13px; background-color: rgba(255, 255, 255, 0.01);&quot;&gt;productcenter-manage&lt;/span&gt;&lt;br style=&quot;color: rgb(50, 50, 50); font-family: &amp;quot;Microsoft YaHei&amp;quot;, 微软雅黑, Arial; font-size: 13px;&quot;&gt;&lt;span style=&quot;color: rgb(50, 50, 50); font-family: &amp;quot;Microsoft YaHei&amp;quot;, 微软雅黑, Arial; font-size: 13px; background-color: rgba(255, 255, 255, 0.01);&quot;&gt;10.25.1.93 | 10.25.1.66&lt;/span&gt;&lt;br style=&quot;color: rgb(50, 50, 50); font-family: &amp;quot;Microsoft YaHei&amp;quot;, 微软雅黑, Arial; font-size: 13px;&quot;&gt;&lt;span style=&quot;color: rgb(50, 50, 50); font-family: &amp;quot;Microsoft YaHei&amp;quot;, 微软雅黑, Arial; font-size: 13px; background-color: rgba(255, 255, 255, 0.01);&quot;&gt;4C/8G&lt;/span&gt;" style="rounded=0;whiteSpace=wrap;html=1;fillColor=#cdeb8b;strokeColor=#36393d;align=center;" parent="1" vertex="1">
          <mxGeometry x="912" y="1180" width="150" height="70" as="geometry" />
        </mxCell>
        <mxCell id="7kykOVdzn0JzqWnfIJqe-57" value="&lt;div&gt;&lt;font face=&quot;Microsoft YaHei, 微软雅黑, Arial&quot; color=&quot;#323232&quot;&gt;&lt;span style=&quot;font-size: 13px; background-color: rgba(255, 255, 255, 0.01);&quot;&gt;分成系统&lt;/span&gt;&lt;/font&gt;&lt;/div&gt;&lt;span style=&quot;color: rgb(50, 50, 50); font-family: &amp;quot;Microsoft YaHei&amp;quot;, 微软雅黑, Arial; font-size: 13px; background-color: rgba(255, 255, 255, 0.01);&quot;&gt;divide-manage&lt;/span&gt;&lt;br style=&quot;color: rgb(50, 50, 50); font-family: &amp;quot;Microsoft YaHei&amp;quot;, 微软雅黑, Arial; font-size: 13px;&quot;&gt;&lt;span style=&quot;color: rgb(50, 50, 50); font-family: &amp;quot;Microsoft YaHei&amp;quot;, 微软雅黑, Arial; font-size: 13px; background-color: rgba(255, 255, 255, 0.01);&quot;&gt;10.25.1.124 | 10.25.1.125&lt;/span&gt;&lt;br style=&quot;color: rgb(50, 50, 50); font-family: &amp;quot;Microsoft YaHei&amp;quot;, 微软雅黑, Arial; font-size: 13px;&quot;&gt;&lt;span style=&quot;color: rgb(50, 50, 50); font-family: &amp;quot;Microsoft YaHei&amp;quot;, 微软雅黑, Arial; font-size: 13px; background-color: rgba(255, 255, 255, 0.01);&quot;&gt;2C/4G&lt;/span&gt;" style="rounded=0;whiteSpace=wrap;html=1;fillColor=#cdeb8b;strokeColor=#36393d;align=center;" parent="1" vertex="1">
          <mxGeometry x="908" y="1300" width="158" height="70" as="geometry" />
        </mxCell>
        <mxCell id="7kykOVdzn0JzqWnfIJqe-67" value="&lt;div&gt;&lt;font face=&quot;Microsoft YaHei, 微软雅黑, Arial&quot; color=&quot;#323232&quot;&gt;&lt;span style=&quot;font-size: 13px; background-color: rgba(255, 255, 255, 0.01);&quot;&gt;工作台管理&lt;/span&gt;&lt;/font&gt;&lt;/div&gt;&lt;span style=&quot;color: rgb(50, 50, 50); font-family: &amp;quot;Microsoft YaHei&amp;quot;, 微软雅黑, Arial; font-size: 13px; background-color: rgba(255, 255, 255, 0.01);&quot;&gt;workbench-manage&lt;/span&gt;&lt;br style=&quot;color: rgb(50, 50, 50); font-family: &amp;quot;Microsoft YaHei&amp;quot;, 微软雅黑, Arial; font-size: 13px;&quot;&gt;&lt;span style=&quot;color: rgb(50, 50, 50); font-family: &amp;quot;Microsoft YaHei&amp;quot;, 微软雅黑, Arial; font-size: 13px; background-color: rgba(255, 255, 255, 0.01);&quot;&gt;10.25.1.68 | 10.25.1.97&lt;/span&gt;&lt;br style=&quot;color: rgb(50, 50, 50); font-family: &amp;quot;Microsoft YaHei&amp;quot;, 微软雅黑, Arial; font-size: 13px;&quot;&gt;&lt;span style=&quot;color: rgb(50, 50, 50); font-family: &amp;quot;Microsoft YaHei&amp;quot;, 微软雅黑, Arial; font-size: 13px; background-color: rgba(255, 255, 255, 0.01);&quot;&gt;4C/8G |&amp;nbsp;&lt;/span&gt;&lt;span style=&quot;color: rgb(50, 50, 50); font-family: &amp;quot;Microsoft YaHei&amp;quot;, 微软雅黑, Arial; font-size: 13px; background-color: rgba(255, 255, 255, 0.01);&quot;&gt;2C/4G&lt;/span&gt;" style="whiteSpace=wrap;html=1;rounded=0;fillColor=#cdeb8b;strokeColor=#36393d;align=center;" parent="1" vertex="1">
          <mxGeometry x="2100" y="945" width="150" height="70" as="geometry" />
        </mxCell>
        <mxCell id="7kykOVdzn0JzqWnfIJqe-71" value="" style="edgeStyle=orthogonalEdgeStyle;rounded=0;orthogonalLoop=1;jettySize=auto;html=1;" parent="1" edge="1">
          <mxGeometry relative="1" as="geometry">
            <mxPoint x="1925" y="775" as="sourcePoint" />
          </mxGeometry>
        </mxCell>
        <mxCell id="7kykOVdzn0JzqWnfIJqe-72" value="&lt;div&gt;&lt;font face=&quot;Microsoft YaHei, 微软雅黑, Arial&quot; color=&quot;#323232&quot;&gt;&lt;span style=&quot;font-size: 13px; background-color: rgba(255, 255, 255, 0.01);&quot;&gt;财务上报&lt;/span&gt;&lt;/font&gt;&lt;/div&gt;&lt;span style=&quot;color: rgb(50, 50, 50); font-family: &amp;quot;Microsoft YaHei&amp;quot;, 微软雅黑, Arial; font-size: 13px; background-color: rgba(255, 255, 255, 0.01);&quot;&gt;financial-report&lt;/span&gt;&lt;br style=&quot;color: rgb(50, 50, 50); font-family: &amp;quot;Microsoft YaHei&amp;quot;, 微软雅黑, Arial; font-size: 13px;&quot;&gt;&lt;span style=&quot;color: rgb(50, 50, 50); font-family: &amp;quot;Microsoft YaHei&amp;quot;, 微软雅黑, Arial; font-size: 13px; background-color: rgba(255, 255, 255, 0.01);&quot;&gt;10.25.1.126&lt;/span&gt;&lt;br style=&quot;color: rgb(50, 50, 50); font-family: &amp;quot;Microsoft YaHei&amp;quot;, 微软雅黑, Arial; font-size: 13px;&quot;&gt;&lt;span style=&quot;color: rgb(50, 50, 50); font-family: &amp;quot;Microsoft YaHei&amp;quot;, 微软雅黑, Arial; font-size: 13px; background-color: rgba(255, 255, 255, 0.01);&quot;&gt;4C/8G&lt;/span&gt;" style="whiteSpace=wrap;html=1;rounded=0;fillColor=#cdeb8b;strokeColor=#36393d;align=center;" parent="1" vertex="1">
          <mxGeometry x="2100" y="1085" width="150" height="70" as="geometry" />
        </mxCell>
        <mxCell id="7kykOVdzn0JzqWnfIJqe-73" value="&lt;div&gt;&lt;font face=&quot;Microsoft YaHei, 微软雅黑, Arial&quot; color=&quot;#323232&quot;&gt;&lt;span style=&quot;font-size: 13px; background-color: rgba(255, 255, 255, 0.01);&quot;&gt;工作流系统&lt;/span&gt;&lt;/font&gt;&lt;/div&gt;&lt;span style=&quot;color: rgb(50, 50, 50); font-family: &amp;quot;Microsoft YaHei&amp;quot;, 微软雅黑, Arial; font-size: 13px; background-color: rgba(255, 255, 255, 0.01);&quot;&gt;workflow&lt;/span&gt;&lt;br style=&quot;color: rgb(50, 50, 50); font-family: &amp;quot;Microsoft YaHei&amp;quot;, 微软雅黑, Arial; font-size: 13px;&quot;&gt;&lt;span style=&quot;color: rgb(50, 50, 50); font-family: &amp;quot;Microsoft YaHei&amp;quot;, 微软雅黑, Arial; font-size: 13px; background-color: rgba(255, 255, 255, 0.01);&quot;&gt;10.25.1.51&lt;/span&gt;&lt;br style=&quot;color: rgb(50, 50, 50); font-family: &amp;quot;Microsoft YaHei&amp;quot;, 微软雅黑, Arial; font-size: 13px;&quot;&gt;&lt;span style=&quot;color: rgb(50, 50, 50); font-family: &amp;quot;Microsoft YaHei&amp;quot;, 微软雅黑, Arial; font-size: 13px; background-color: rgba(255, 255, 255, 0.01);&quot;&gt;4C/8G&lt;/span&gt;" style="whiteSpace=wrap;html=1;rounded=0;fillColor=#ffcc99;strokeColor=#36393d;align=center;" parent="1" vertex="1">
          <mxGeometry x="2100" y="1230" width="150" height="70" as="geometry" />
        </mxCell>
        <mxCell id="7kykOVdzn0JzqWnfIJqe-83" value="" style="group" parent="1" vertex="1" connectable="0">
          <mxGeometry x="1180" y="1250" width="700" height="115" as="geometry" />
        </mxCell>
        <mxCell id="7kykOVdzn0JzqWnfIJqe-45" value="中间件-redis" style="rounded=0;whiteSpace=wrap;html=1;align=right;verticalAlign=top;fillColor=#e1d5e7;strokeColor=#9673a6;" parent="7kykOVdzn0JzqWnfIJqe-83" vertex="1">
          <mxGeometry width="520" height="115" as="geometry" />
        </mxCell>
        <mxCell id="7kykOVdzn0JzqWnfIJqe-82" value="&lt;span style=&quot;color: rgb(50, 50, 50); font-family: &amp;quot;Microsoft YaHei&amp;quot;, 微软雅黑, Arial; font-size: 13px; background-color: rgba(255, 255, 255, 0.01);&quot;&gt;redis-master&lt;/span&gt;&lt;div style=&quot;resize: none; outline: none; font-size: 13px; color: rgb(50, 50, 50); font-family: &amp;quot;Microsoft YaHei&amp;quot;, 微软雅黑, Arial;&quot;&gt;10.25.1.48&lt;div style=&quot;resize: none; outline: none; font-size: inherit;&quot;&gt;4C/8G&lt;/div&gt;&lt;/div&gt;" style="rounded=0;whiteSpace=wrap;html=1;" parent="7kykOVdzn0JzqWnfIJqe-83" vertex="1">
          <mxGeometry x="20" y="27.5" width="132" height="60" as="geometry" />
        </mxCell>
        <mxCell id="0cAWCuBhK8sL3BYv6XPo-52" value="&lt;span style=&quot;color: rgb(50, 50, 50); font-family: &amp;quot;Microsoft YaHei&amp;quot;, 微软雅黑, Arial; font-size: 13px; background-color: rgba(255, 255, 255, 0.01);&quot;&gt;redis-slave-01&lt;/span&gt;&lt;div style=&quot;resize: none; outline: none; font-size: 13px; color: rgb(50, 50, 50); font-family: &amp;quot;Microsoft YaHei&amp;quot;, 微软雅黑, Arial;&quot;&gt;10.25.1.61&lt;div style=&quot;resize: none; outline: none; font-size: inherit;&quot;&gt;4C/8G&lt;/div&gt;&lt;/div&gt;" style="rounded=0;whiteSpace=wrap;html=1;" parent="7kykOVdzn0JzqWnfIJqe-83" vertex="1">
          <mxGeometry x="190" y="27.5" width="132" height="60" as="geometry" />
        </mxCell>
        <mxCell id="0cAWCuBhK8sL3BYv6XPo-53" value="&lt;span style=&quot;color: rgb(50, 50, 50); font-family: &amp;quot;Microsoft YaHei&amp;quot;, 微软雅黑, Arial; font-size: 13px; background-color: rgba(255, 255, 255, 0.01);&quot;&gt;redis-slave-02&lt;/span&gt;&lt;div style=&quot;resize: none; outline: none; font-size: 13px; color: rgb(50, 50, 50); font-family: &amp;quot;Microsoft YaHei&amp;quot;, 微软雅黑, Arial;&quot;&gt;10.25.1.62&lt;div style=&quot;resize: none; outline: none; font-size: inherit;&quot;&gt;4C/8G&lt;/div&gt;&lt;/div&gt;" style="rounded=0;whiteSpace=wrap;html=1;" parent="7kykOVdzn0JzqWnfIJqe-83" vertex="1">
          <mxGeometry x="360" y="27.5" width="132" height="60" as="geometry" />
        </mxCell>
        <mxCell id="7kykOVdzn0JzqWnfIJqe-90" value="" style="group" parent="1" vertex="1" connectable="0">
          <mxGeometry x="-65.43" y="-160" width="389.86" height="317.76" as="geometry" />
        </mxCell>
        <mxCell id="umgCvMGF8Q4jKKfUTwUB-12" value="" style="group" parent="7kykOVdzn0JzqWnfIJqe-90" vertex="1" connectable="0">
          <mxGeometry y="120" width="389.86" height="197.76" as="geometry" />
        </mxCell>
        <mxCell id="umgCvMGF8Q4jKKfUTwUB-1" value="阿里云入口" style="whiteSpace=wrap;html=1;fillColor=#ffe6cc;strokeColor=#d79b00;rounded=0;align=center;verticalAlign=top;" parent="umgCvMGF8Q4jKKfUTwUB-12" vertex="1">
          <mxGeometry width="389.86" height="197.76" as="geometry" />
        </mxCell>
        <mxCell id="umgCvMGF8Q4jKKfUTwUB-3" value="SLB-CLB&lt;div&gt;&lt;span style=&quot;color: rgb(51, 51, 51); font-family: -apple-system, BlinkMacSystemFont, &amp;quot;Segoe UI&amp;quot;, &amp;quot;PingFang SC&amp;quot;, &amp;quot;Hiragino Sans GB&amp;quot;, &amp;quot;Microsoft YaHei&amp;quot;, &amp;quot;Helvetica Neue&amp;quot;, Helvetica, Arial, sans-serif; text-align: start; white-space: pre; background-color: rgb(255, 255, 255);&quot;&gt;47.104.191.53&lt;/span&gt;&lt;/div&gt;&lt;div&gt;&lt;span style=&quot;color: rgb(51, 51, 51); font-family: -apple-system, BlinkMacSystemFont, &amp;quot;Segoe UI&amp;quot;, &amp;quot;PingFang SC&amp;quot;, &amp;quot;Hiragino Sans GB&amp;quot;, &amp;quot;Microsoft YaHei&amp;quot;, &amp;quot;Helvetica Neue&amp;quot;, Helvetica, Arial, sans-serif; text-align: start; white-space: pre; background-color: rgb(255, 255, 255);&quot;&gt;&lt;span style=&quot;white-space: normal;&quot;&gt;15 Mbps&lt;/span&gt;&lt;/span&gt;&lt;/div&gt;" style="rounded=0;whiteSpace=wrap;html=1;" parent="umgCvMGF8Q4jKKfUTwUB-12" vertex="1">
          <mxGeometry x="110.18" y="42.38000000000001" width="169.5" height="50" as="geometry" />
        </mxCell>
        <mxCell id="umgCvMGF8Q4jKKfUTwUB-4" value="&lt;span style=&quot;color: rgb(51, 51, 51); font-family: -apple-system, BlinkMacSystemFont, &amp;quot;Segoe UI&amp;quot;, &amp;quot;PingFang SC&amp;quot;, &amp;quot;Hiragino Sans GB&amp;quot;, &amp;quot;Microsoft YaHei&amp;quot;, &amp;quot;Helvetica Neue&amp;quot;, Helvetica, Arial, sans-serif; text-align: start; background-color: rgb(246, 248, 250);&quot;&gt;jmcloud-nginx-2&lt;/span&gt;&lt;br&gt;&lt;div&gt;&lt;span style=&quot;color: rgb(51, 51, 51); font-family: -apple-system, BlinkMacSystemFont, &amp;quot;Segoe UI&amp;quot;, &amp;quot;PingFang SC&amp;quot;, &amp;quot;Hiragino Sans GB&amp;quot;, &amp;quot;Microsoft YaHei&amp;quot;, &amp;quot;Helvetica Neue&amp;quot;, Helvetica, Arial, sans-serif; text-align: start; white-space: pre; background-color: rgb(255, 255, 255);&quot;&gt;47.104.156.177&lt;/span&gt;&lt;/div&gt;&lt;div&gt;&lt;span style=&quot;color: rgb(51, 51, 51); font-family: -apple-system, BlinkMacSystemFont, &amp;quot;Segoe UI&amp;quot;, &amp;quot;PingFang SC&amp;quot;, &amp;quot;Hiragino Sans GB&amp;quot;, &amp;quot;Microsoft YaHei&amp;quot;, &amp;quot;Helvetica Neue&amp;quot;, Helvetica, Arial, sans-serif; text-align: start; white-space: pre; background-color: rgb(255, 255, 255);&quot;&gt;&lt;span style=&quot;box-sizing: border-box; overscroll-behavior-x: none; white-space: normal; background-color: rgb(247, 249, 250);&quot;&gt;&lt;span style=&quot;box-sizing: border-box; overscroll-behavior-x: none;&quot;&gt;&lt;span style=&quot;box-sizing: border-box; overscroll-behavior-x: none; font-weight: bolder;&quot; data-spm-anchor-id=&quot;5176.ecscore_server.0.i1.7d0b4df59nE4pS&quot;&gt;4&lt;/span&gt;&amp;nbsp;核（vCPU）&lt;/span&gt;&lt;span style=&quot;box-sizing: border-box; overscroll-behavior-x: none;&quot;&gt;&lt;span style=&quot;box-sizing: border-box; overscroll-behavior-x: none; font-weight: bolder;&quot;&gt;8&lt;/span&gt;&lt;span style=&quot;box-sizing: border-box; overscroll-behavior-x: none;&quot;&gt;&amp;nbsp;GiB&lt;/span&gt;&lt;/span&gt;&lt;/span&gt;&lt;span style=&quot;box-sizing: border-box; overscroll-behavior-x: none; white-space: normal; background-color: rgb(247, 249, 250); margin-left: 4px;&quot; class=&quot;ecs-core-tooltip-open&quot;&gt;&lt;span style=&quot;box-sizing: border-box; overscroll-behavior-x: none;&quot;&gt;&lt;span style=&quot;box-sizing: border-box; overscroll-behavior-x: none;&quot; data-spm-anchor-id=&quot;5176.ecscore_server.0.i0.7d0b4df59nE4pS&quot;&gt;10 Mbps&lt;/span&gt;&lt;/span&gt;&lt;/span&gt;&lt;/span&gt;&lt;/div&gt;" style="rounded=0;whiteSpace=wrap;html=1;" parent="umgCvMGF8Q4jKKfUTwUB-12" vertex="1">
          <mxGeometry x="19.775507246376833" y="127.13142857142857" width="169.5" height="50" as="geometry" />
        </mxCell>
        <mxCell id="umgCvMGF8Q4jKKfUTwUB-9" value="&lt;div&gt;&lt;span style=&quot;color: rgb(51, 51, 51); font-family: -apple-system, BlinkMacSystemFont, &amp;quot;Segoe UI&amp;quot;, &amp;quot;PingFang SC&amp;quot;, &amp;quot;Hiragino Sans GB&amp;quot;, &amp;quot;Microsoft YaHei&amp;quot;, &amp;quot;Helvetica Neue&amp;quot;, Helvetica, Arial, sans-serif; text-align: start; background-color: rgb(246, 248, 250);&quot;&gt;jmcloud-nginx-2&lt;/span&gt;&lt;span style=&quot;color: rgb(51, 51, 51); font-family: -apple-system, BlinkMacSystemFont, &amp;quot;Segoe UI&amp;quot;, &amp;quot;PingFang SC&amp;quot;, &amp;quot;Hiragino Sans GB&amp;quot;, &amp;quot;Microsoft YaHei&amp;quot;, &amp;quot;Helvetica Neue&amp;quot;, Helvetica, Arial, sans-serif; text-align: start; white-space: pre; background-color: rgb(255, 255, 255);&quot;&gt;&lt;/span&gt;&lt;/div&gt;&lt;span style=&quot;color: rgb(51, 51, 51); font-family: -apple-system, BlinkMacSystemFont, &amp;quot;Segoe UI&amp;quot;, &amp;quot;PingFang SC&amp;quot;, &amp;quot;Hiragino Sans GB&amp;quot;, &amp;quot;Microsoft YaHei&amp;quot;, &amp;quot;Helvetica Neue&amp;quot;, Helvetica, Arial, sans-serif; text-align: start; white-space: pre; background-color: rgb(255, 255, 255);&quot;&gt;118.190.148.26&lt;/span&gt;&lt;div&gt;&lt;span style=&quot;color: rgb(51, 51, 51); font-family: -apple-system, BlinkMacSystemFont, &amp;quot;Segoe UI&amp;quot;, &amp;quot;PingFang SC&amp;quot;, &amp;quot;Hiragino Sans GB&amp;quot;, &amp;quot;Microsoft YaHei&amp;quot;, &amp;quot;Helvetica Neue&amp;quot;, Helvetica, Arial, sans-serif; text-align: start; white-space: pre; background-color: rgb(255, 255, 255);&quot;&gt;&lt;span style=&quot;box-sizing: border-box; overscroll-behavior-x: none; white-space: normal; background-color: rgb(247, 249, 250);&quot;&gt;&lt;span style=&quot;box-sizing: border-box; overscroll-behavior-x: none;&quot;&gt;&lt;span style=&quot;box-sizing: border-box; overscroll-behavior-x: none; font-weight: bolder;&quot; data-spm-anchor-id=&quot;5176.ecscore_server.0.i1.7d0b4df59nE4pS&quot;&gt;4&lt;/span&gt;&amp;nbsp;核（vCPU）&lt;/span&gt;&lt;span style=&quot;box-sizing: border-box; overscroll-behavior-x: none;&quot;&gt;&lt;span style=&quot;box-sizing: border-box; overscroll-behavior-x: none; font-weight: bolder;&quot;&gt;8&lt;/span&gt;&lt;span style=&quot;box-sizing: border-box; overscroll-behavior-x: none;&quot;&gt;&amp;nbsp;GiB&lt;/span&gt;&lt;/span&gt;&lt;/span&gt;&lt;span style=&quot;box-sizing: border-box; overscroll-behavior-x: none; white-space: normal; background-color: rgb(247, 249, 250); margin-left: 4px;&quot; class=&quot;ecs-core-tooltip-open&quot;&gt;&lt;span style=&quot;box-sizing: border-box; overscroll-behavior-x: none;&quot;&gt;&lt;span style=&quot;box-sizing: border-box; overscroll-behavior-x: none;&quot; data-spm-anchor-id=&quot;5176.ecscore_server.0.i0.7d0b4df59nE4pS&quot;&gt;10 Mbps&lt;/span&gt;&lt;/span&gt;&lt;/span&gt;&lt;/span&gt;&lt;/div&gt;" style="whiteSpace=wrap;html=1;rounded=0;" parent="umgCvMGF8Q4jKKfUTwUB-12" vertex="1">
          <mxGeometry x="203.4052173913044" y="127.13142857142857" width="169.5" height="50" as="geometry" />
        </mxCell>
        <mxCell id="umgCvMGF8Q4jKKfUTwUB-5" value="" style="edgeStyle=orthogonalEdgeStyle;rounded=0;orthogonalLoop=1;jettySize=auto;html=1;" parent="umgCvMGF8Q4jKKfUTwUB-12" source="umgCvMGF8Q4jKKfUTwUB-3" target="umgCvMGF8Q4jKKfUTwUB-4" edge="1">
          <mxGeometry relative="1" as="geometry" />
        </mxCell>
        <mxCell id="umgCvMGF8Q4jKKfUTwUB-6" value="" style="edgeStyle=orthogonalEdgeStyle;rounded=0;orthogonalLoop=1;jettySize=auto;html=1;" parent="umgCvMGF8Q4jKKfUTwUB-12" source="umgCvMGF8Q4jKKfUTwUB-3" target="umgCvMGF8Q4jKKfUTwUB-4" edge="1">
          <mxGeometry relative="1" as="geometry" />
        </mxCell>
        <mxCell id="umgCvMGF8Q4jKKfUTwUB-7" value="" style="edgeStyle=orthogonalEdgeStyle;rounded=0;orthogonalLoop=1;jettySize=auto;html=1;" parent="umgCvMGF8Q4jKKfUTwUB-12" source="umgCvMGF8Q4jKKfUTwUB-3" target="umgCvMGF8Q4jKKfUTwUB-4" edge="1">
          <mxGeometry relative="1" as="geometry" />
        </mxCell>
        <mxCell id="umgCvMGF8Q4jKKfUTwUB-8" value="" style="edgeStyle=orthogonalEdgeStyle;rounded=0;orthogonalLoop=1;jettySize=auto;html=1;" parent="umgCvMGF8Q4jKKfUTwUB-12" source="umgCvMGF8Q4jKKfUTwUB-3" target="umgCvMGF8Q4jKKfUTwUB-4" edge="1">
          <mxGeometry relative="1" as="geometry" />
        </mxCell>
        <mxCell id="umgCvMGF8Q4jKKfUTwUB-10" value="" style="edgeStyle=orthogonalEdgeStyle;rounded=0;orthogonalLoop=1;jettySize=auto;html=1;" parent="umgCvMGF8Q4jKKfUTwUB-12" source="umgCvMGF8Q4jKKfUTwUB-3" target="umgCvMGF8Q4jKKfUTwUB-9" edge="1">
          <mxGeometry relative="1" as="geometry" />
        </mxCell>
        <mxCell id="umgCvMGF8Q4jKKfUTwUB-24" style="edgeStyle=orthogonalEdgeStyle;rounded=0;orthogonalLoop=1;jettySize=auto;html=1;entryX=0.5;entryY=0;entryDx=0;entryDy=0;fillColor=#f8cecc;strokeColor=light-dark(#FF3333,#D7817E);strokeWidth=3;" parent="7kykOVdzn0JzqWnfIJqe-90" source="umgCvMGF8Q4jKKfUTwUB-22" target="umgCvMGF8Q4jKKfUTwUB-1" edge="1">
          <mxGeometry relative="1" as="geometry" />
        </mxCell>
        <mxCell id="umgCvMGF8Q4jKKfUTwUB-22" value="&lt;div style=&quot;&quot;&gt;&lt;span style=&quot;text-wrap-mode: nowrap;&quot;&gt;h5.whctg.com&lt;/span&gt;&lt;/div&gt;&lt;div style=&quot;text-wrap-mode: nowrap;&quot;&gt;&lt;font&gt;H5入口 自在威海-智慧旅游平台&lt;/font&gt;&lt;/div&gt;" style="whiteSpace=wrap;html=1;verticalAlign=middle;fillColor=#fad9d5;strokeColor=#ae4132;rounded=0;" parent="7kykOVdzn0JzqWnfIJqe-90" vertex="1">
          <mxGeometry x="95" width="200" height="58.88" as="geometry" />
        </mxCell>
        <mxCell id="7kykOVdzn0JzqWnfIJqe-99" style="edgeStyle=none;rounded=0;orthogonalLoop=1;jettySize=auto;html=1;strokeColor=#FF33FF;strokeWidth=2;entryX=0.25;entryY=0;entryDx=0;entryDy=0;exitX=1;exitY=0.5;exitDx=0;exitDy=0;" parent="1" source="7kykOVdzn0JzqWnfIJqe-91" target="7kykOVdzn0JzqWnfIJqe-44" edge="1">
          <mxGeometry relative="1" as="geometry">
            <mxPoint x="620" y="990" as="sourcePoint" />
            <mxPoint x="870" y="1010" as="targetPoint" />
            <Array as="points">
              <mxPoint x="910" y="990" />
            </Array>
          </mxGeometry>
        </mxCell>
        <mxCell id="7kykOVdzn0JzqWnfIJqe-91" value="&lt;div&gt;&lt;font color=&quot;#323232&quot; face=&quot;Microsoft YaHei, 微软雅黑, Arial&quot;&gt;&lt;span style=&quot;font-size: 13px; background-color: rgba(255, 255, 255, 0.01);&quot;&gt;码商管理&lt;/span&gt;&lt;/font&gt;&lt;/div&gt;&lt;div style=&quot;&quot;&gt;&lt;span style=&quot;box-sizing: border-box;&quot;&gt;CODE-QUOTIENT&lt;/span&gt;&lt;/div&gt;&lt;span style=&quot;color: rgb(50, 50, 50); font-family: &amp;quot;Microsoft YaHei&amp;quot;, 微软雅黑, Arial; font-size: 13px; background-color: rgba(255, 255, 255, 0.01);&quot;&gt;10.25.1.103 | 10.25.1.76&lt;/span&gt;&lt;br style=&quot;color: rgb(50, 50, 50); font-family: &amp;quot;Microsoft YaHei&amp;quot;, 微软雅黑, Arial; font-size: 13px;&quot;&gt;&lt;span style=&quot;color: rgb(50, 50, 50); font-family: &amp;quot;Microsoft YaHei&amp;quot;, 微软雅黑, Arial; font-size: 13px; background-color: rgba(255, 255, 255, 0.01);&quot;&gt;2C/4G&lt;/span&gt;" style="rounded=0;whiteSpace=wrap;html=1;fillColor=#FFB366;strokeColor=#b46504;align=center;" parent="1" vertex="1">
          <mxGeometry x="465" y="955" width="150" height="70" as="geometry" />
        </mxCell>
        <mxCell id="7kykOVdzn0JzqWnfIJqe-95" value="OTA(飞猪码商）" style="shape=process;whiteSpace=wrap;html=1;backgroundOutline=1;fillColor=#99FFFF;strokeColor=#ae4132;" parent="1" vertex="1">
          <mxGeometry x="600" y="-160" width="120" height="60" as="geometry" />
        </mxCell>
        <mxCell id="7kykOVdzn0JzqWnfIJqe-97" value="" style="edgeStyle=none;orthogonalLoop=1;jettySize=auto;html=1;rounded=0;entryX=0;entryY=0.25;entryDx=0;entryDy=0;strokeColor=#FF0000;strokeWidth=2;fillColor=#e51400;exitX=0.5;exitY=1;exitDx=0;exitDy=0;" parent="1" source="7kykOVdzn0JzqWnfIJqe-6" target="7kykOVdzn0JzqWnfIJqe-58" edge="1">
          <mxGeometry width="80" relative="1" as="geometry">
            <mxPoint x="660" y="300" as="sourcePoint" />
            <mxPoint x="880" y="230" as="targetPoint" />
            <Array as="points">
              <mxPoint x="350" y="590" />
            </Array>
          </mxGeometry>
        </mxCell>
        <mxCell id="7kykOVdzn0JzqWnfIJqe-100" value="OTA(美团/携程/高德/同程/抖音/飞猪分销等/&lt;span style=&quot;background-color: transparent;&quot;&gt;携程&lt;br&gt;&lt;/span&gt;&lt;span style=&quot;background-color: transparent;&quot;&gt;车船/同程车船/景区支付宝)&lt;/span&gt;）" style="shape=process;whiteSpace=wrap;html=1;backgroundOutline=1;fillColor=#99FFFF;strokeColor=#ae4132;" parent="1" vertex="1">
          <mxGeometry x="752" y="-160" width="196.5" height="60" as="geometry" />
        </mxCell>
        <mxCell id="7kykOVdzn0JzqWnfIJqe-101" value="PC" style="shape=process;whiteSpace=wrap;html=1;backgroundOutline=1;fillColor=#99FFFF;strokeColor=#ae4132;" parent="1" vertex="1">
          <mxGeometry x="968.5" y="330" width="120" height="60" as="geometry" />
        </mxCell>
        <mxCell id="7kykOVdzn0JzqWnfIJqe-105" value="" style="edgeStyle=none;orthogonalLoop=1;jettySize=auto;html=1;rounded=0;exitX=0;exitY=0.5;exitDx=0;exitDy=0;strokeColor=light-dark(#FF33FF,#EDEDED);strokeWidth=2;entryX=0.5;entryY=0;entryDx=0;entryDy=0;" parent="1" source="7kykOVdzn0JzqWnfIJqe-101" target="iITyiV8JnJJ13BIh8I1--3" edge="1">
          <mxGeometry width="80" relative="1" as="geometry">
            <mxPoint x="1020" y="420" as="sourcePoint" />
            <mxPoint x="1020" y="1010" as="targetPoint" />
            <Array as="points">
              <mxPoint x="926" y="360" />
            </Array>
          </mxGeometry>
        </mxCell>
        <mxCell id="7kykOVdzn0JzqWnfIJqe-106" value="PC人证" style="shape=process;whiteSpace=wrap;html=1;backgroundOutline=1;fillColor=#99FFFF;strokeColor=#ae4132;" parent="1" vertex="1">
          <mxGeometry x="1140" y="330" width="120" height="60" as="geometry" />
        </mxCell>
        <mxCell id="7kykOVdzn0JzqWnfIJqe-107" value="闸机终端" style="shape=process;whiteSpace=wrap;html=1;backgroundOutline=1;fillColor=#99FFFF;strokeColor=#ae4132;" parent="1" vertex="1">
          <mxGeometry x="1289.5" y="330" width="120" height="60" as="geometry" />
        </mxCell>
        <mxCell id="7kykOVdzn0JzqWnfIJqe-108" value="PDA" style="shape=process;whiteSpace=wrap;html=1;backgroundOutline=1;fillColor=#99FFFF;strokeColor=#ae4132;" parent="1" vertex="1">
          <mxGeometry x="1439" y="330" width="120" height="60" as="geometry" />
        </mxCell>
        <mxCell id="7kykOVdzn0JzqWnfIJqe-109" value="" style="edgeStyle=none;orthogonalLoop=1;jettySize=auto;html=1;rounded=0;exitX=0.5;exitY=1;exitDx=0;exitDy=0;strokeColor=light-dark(#FF33FF,#EDEDED);strokeWidth=2;entryX=0.109;entryY=-0.01;entryDx=0;entryDy=0;entryPerimeter=0;dashed=1;" parent="1" source="7kykOVdzn0JzqWnfIJqe-106" target="7kykOVdzn0JzqWnfIJqe-50" edge="1">
          <mxGeometry width="80" relative="1" as="geometry">
            <mxPoint x="1270" y="520" as="sourcePoint" />
            <mxPoint x="1202" y="1010" as="targetPoint" />
            <Array as="points" />
          </mxGeometry>
        </mxCell>
        <mxCell id="7kykOVdzn0JzqWnfIJqe-110" value="" style="edgeStyle=none;orthogonalLoop=1;jettySize=auto;html=1;rounded=0;exitX=0.5;exitY=1;exitDx=0;exitDy=0;strokeColor=#FF33FF;strokeWidth=2;entryX=0.25;entryY=0;entryDx=0;entryDy=0;dashed=1;" parent="1" source="7kykOVdzn0JzqWnfIJqe-107" target="7kykOVdzn0JzqWnfIJqe-50" edge="1">
          <mxGeometry width="80" relative="1" as="geometry">
            <mxPoint x="1270" y="520" as="sourcePoint" />
            <mxPoint x="1317" y="1020" as="targetPoint" />
            <Array as="points">
              <mxPoint x="1349" y="410" />
              <mxPoint x="1240" y="410" />
            </Array>
          </mxGeometry>
        </mxCell>
        <mxCell id="7kykOVdzn0JzqWnfIJqe-111" value="" style="edgeStyle=none;orthogonalLoop=1;jettySize=auto;html=1;rounded=0;exitX=0.5;exitY=1;exitDx=0;exitDy=0;entryX=0.5;entryY=0;entryDx=0;entryDy=0;strokeColor=#FF33FF;strokeWidth=2;dashed=1;" parent="1" source="7kykOVdzn0JzqWnfIJqe-108" target="7kykOVdzn0JzqWnfIJqe-50" edge="1">
          <mxGeometry width="80" relative="1" as="geometry">
            <mxPoint x="1270" y="520" as="sourcePoint" />
            <mxPoint x="1350" y="520" as="targetPoint" />
            <Array as="points">
              <mxPoint x="1500" y="450" />
              <mxPoint x="1276" y="450" />
            </Array>
          </mxGeometry>
        </mxCell>
        <mxCell id="7kykOVdzn0JzqWnfIJqe-112" value="" style="edgeStyle=none;orthogonalLoop=1;jettySize=auto;html=1;rounded=0;entryX=0;entryY=0.5;entryDx=0;entryDy=0;startArrow=classic;startFill=1;strokeWidth=2;fillColor=#d80073;strokeColor=#FF33FF;exitX=1;exitY=0.5;exitDx=0;exitDy=0;" parent="1" source="7kykOVdzn0JzqWnfIJqe-43" target="7kykOVdzn0JzqWnfIJqe-44" edge="1">
          <mxGeometry width="80" relative="1" as="geometry">
            <mxPoint x="810" y="1049.29" as="sourcePoint" />
            <mxPoint x="890" y="1049.29" as="targetPoint" />
            <Array as="points" />
          </mxGeometry>
        </mxCell>
        <mxCell id="7kykOVdzn0JzqWnfIJqe-113" value="" style="edgeStyle=none;orthogonalLoop=1;jettySize=auto;html=1;rounded=0;entryX=0;entryY=0.5;entryDx=0;entryDy=0;startArrow=classic;startFill=1;strokeWidth=2;fillColor=#d80073;strokeColor=#FF33FF;exitX=1;exitY=0.5;exitDx=0;exitDy=0;endArrow=none;endFill=0;" parent="1" source="7kykOVdzn0JzqWnfIJqe-44" target="7kykOVdzn0JzqWnfIJqe-50" edge="1">
          <mxGeometry width="80" relative="1" as="geometry">
            <mxPoint x="1060" y="1049.29" as="sourcePoint" />
            <mxPoint x="1162" y="1049.29" as="targetPoint" />
            <Array as="points" />
          </mxGeometry>
        </mxCell>
        <mxCell id="7kykOVdzn0JzqWnfIJqe-114" value="" style="edgeStyle=none;orthogonalLoop=1;jettySize=auto;html=1;rounded=0;entryX=0;entryY=0.5;entryDx=0;entryDy=0;startArrow=none;startFill=0;strokeWidth=2;fillColor=#d80073;strokeColor=#FF33FF;exitX=1;exitY=0.5;exitDx=0;exitDy=0;" parent="1" source="7kykOVdzn0JzqWnfIJqe-50" target="7kykOVdzn0JzqWnfIJqe-49" edge="1">
          <mxGeometry width="80" relative="1" as="geometry">
            <mxPoint x="1324" y="1049.29" as="sourcePoint" />
            <mxPoint x="1426" y="1049.29" as="targetPoint" />
            <Array as="points" />
          </mxGeometry>
        </mxCell>
        <mxCell id="7kykOVdzn0JzqWnfIJqe-116" value="" style="edgeStyle=none;orthogonalLoop=1;jettySize=auto;html=1;rounded=0;exitX=0.5;exitY=1;exitDx=0;exitDy=0;entryX=0.5;entryY=0;entryDx=0;entryDy=0;strokeColor=#FF33FF;strokeWidth=2;" parent="1" source="7kykOVdzn0JzqWnfIJqe-44" target="7kykOVdzn0JzqWnfIJqe-56" edge="1">
          <mxGeometry width="80" relative="1" as="geometry">
            <mxPoint x="1010" y="1320" as="sourcePoint" />
            <mxPoint x="1090" y="1320" as="targetPoint" />
            <Array as="points" />
          </mxGeometry>
        </mxCell>
        <mxCell id="7kykOVdzn0JzqWnfIJqe-118" value="" style="edgeStyle=none;orthogonalLoop=1;jettySize=auto;html=1;rounded=0;exitX=0.75;exitY=1;exitDx=0;exitDy=0;entryX=0.25;entryY=1;entryDx=0;entryDy=0;strokeColor=#FF33FF;strokeWidth=2;" parent="1" source="7kykOVdzn0JzqWnfIJqe-44" target="7kykOVdzn0JzqWnfIJqe-49" edge="1">
          <mxGeometry width="80" relative="1" as="geometry">
            <mxPoint x="1010" y="1320" as="sourcePoint" />
            <mxPoint x="1090" y="1320" as="targetPoint" />
            <Array as="points">
              <mxPoint x="1064" y="1110" />
              <mxPoint x="1250" y="1110" />
              <mxPoint x="1538" y="1110" />
            </Array>
          </mxGeometry>
        </mxCell>
        <mxCell id="7kykOVdzn0JzqWnfIJqe-119" value="" style="edgeStyle=none;orthogonalLoop=1;jettySize=auto;html=1;rounded=0;entryX=0.25;entryY=1;entryDx=0;entryDy=0;exitX=0.653;exitY=1;exitDx=0;exitDy=0;exitPerimeter=0;strokeColor=#FF33FF;strokeWidth=2;" parent="1" source="7kykOVdzn0JzqWnfIJqe-44" target="7kykOVdzn0JzqWnfIJqe-52" edge="1">
          <mxGeometry width="80" relative="1" as="geometry">
            <mxPoint x="1009" y="1100" as="sourcePoint" />
            <mxPoint x="1090" y="1320" as="targetPoint" />
            <Array as="points">
              <mxPoint x="1034" y="1130" />
              <mxPoint x="1748" y="1130" />
            </Array>
          </mxGeometry>
        </mxCell>
        <mxCell id="7kykOVdzn0JzqWnfIJqe-120" value="" style="edgeStyle=none;orthogonalLoop=1;jettySize=auto;html=1;rounded=0;exitX=0.75;exitY=0;exitDx=0;exitDy=0;entryX=0.5;entryY=1;entryDx=0;entryDy=0;startArrow=classic;startFill=1;endArrow=none;endFill=0;strokeColor=#FF33FF;strokeWidth=2;" parent="1" source="7kykOVdzn0JzqWnfIJqe-56" target="7kykOVdzn0JzqWnfIJqe-49" edge="1">
          <mxGeometry width="80" relative="1" as="geometry">
            <mxPoint x="1010" y="1320" as="sourcePoint" />
            <mxPoint x="1090" y="1320" as="targetPoint" />
            <Array as="points">
              <mxPoint x="1024" y="1150" />
              <mxPoint x="1260" y="1150" />
              <mxPoint x="1575" y="1150" />
            </Array>
          </mxGeometry>
        </mxCell>
        <mxCell id="7kykOVdzn0JzqWnfIJqe-121" value="" style="edgeStyle=none;orthogonalLoop=1;jettySize=auto;html=1;rounded=0;exitX=1;exitY=0.25;exitDx=0;exitDy=0;entryX=0.5;entryY=1;entryDx=0;entryDy=0;startArrow=classic;startFill=1;endArrow=none;endFill=0;strokeColor=#FF33FF;strokeWidth=2;" parent="1" source="7kykOVdzn0JzqWnfIJqe-56" target="7kykOVdzn0JzqWnfIJqe-52" edge="1">
          <mxGeometry width="80" relative="1" as="geometry">
            <mxPoint x="1010" y="1320" as="sourcePoint" />
            <mxPoint x="1090" y="1320" as="targetPoint" />
            <Array as="points">
              <mxPoint x="1310" y="1198" />
              <mxPoint x="1570" y="1198" />
              <mxPoint x="1785" y="1198" />
            </Array>
          </mxGeometry>
        </mxCell>
        <mxCell id="7kykOVdzn0JzqWnfIJqe-122" value="" style="edgeStyle=none;orthogonalLoop=1;jettySize=auto;html=1;rounded=0;exitX=1;exitY=0.5;exitDx=0;exitDy=0;entryX=0.5;entryY=1;entryDx=0;entryDy=0;startArrow=classic;startFill=1;strokeColor=#FF33FF;strokeWidth=2;" parent="1" source="7kykOVdzn0JzqWnfIJqe-56" target="7kykOVdzn0JzqWnfIJqe-51" edge="1">
          <mxGeometry width="80" relative="1" as="geometry">
            <mxPoint x="1420" y="1320" as="sourcePoint" />
            <mxPoint x="1500" y="1320" as="targetPoint" />
            <Array as="points">
              <mxPoint x="1993" y="1220" />
            </Array>
          </mxGeometry>
        </mxCell>
        <mxCell id="7kykOVdzn0JzqWnfIJqe-123" value="" style="edgeStyle=none;orthogonalLoop=1;jettySize=auto;html=1;rounded=0;exitX=1;exitY=0.5;exitDx=0;exitDy=0;entryX=0;entryY=0.5;entryDx=0;entryDy=0;strokeColor=#FF33FF;startArrow=classic;startFill=1;strokeWidth=2;endArrow=none;endFill=0;" parent="1" source="7kykOVdzn0JzqWnfIJqe-55" target="7kykOVdzn0JzqWnfIJqe-56" edge="1">
          <mxGeometry width="80" relative="1" as="geometry">
            <mxPoint x="1050" y="1320" as="sourcePoint" />
            <mxPoint x="1130" y="1320" as="targetPoint" />
            <Array as="points" />
          </mxGeometry>
        </mxCell>
        <mxCell id="7kykOVdzn0JzqWnfIJqe-125" value="" style="edgeStyle=none;orthogonalLoop=1;jettySize=auto;html=1;rounded=0;entryX=0.5;entryY=1;entryDx=0;entryDy=0;exitX=0.5;exitY=0;exitDx=0;exitDy=0;strokeColor=#FF33FF;strokeWidth=2;" parent="1" source="7kykOVdzn0JzqWnfIJqe-57" target="7kykOVdzn0JzqWnfIJqe-56" edge="1">
          <mxGeometry width="80" relative="1" as="geometry">
            <mxPoint x="1050" y="1180" as="sourcePoint" />
            <mxPoint x="1130" y="1180" as="targetPoint" />
            <Array as="points" />
          </mxGeometry>
        </mxCell>
        <mxCell id="7kykOVdzn0JzqWnfIJqe-126" value="" style="edgeStyle=none;orthogonalLoop=1;jettySize=auto;html=1;rounded=0;entryX=0.5;entryY=0;entryDx=0;entryDy=0;exitX=0.343;exitY=0.981;exitDx=0;exitDy=0;strokeColor=#FF33FF;strokeWidth=2;exitPerimeter=0;" parent="1" source="7kykOVdzn0JzqWnfIJqe-44" target="7kykOVdzn0JzqWnfIJqe-55" edge="1">
          <mxGeometry width="80" relative="1" as="geometry">
            <mxPoint x="1050" y="1180" as="sourcePoint" />
            <mxPoint x="1130" y="1180" as="targetPoint" />
            <Array as="points">
              <mxPoint x="941" y="1150" />
              <mxPoint x="786" y="1150" />
            </Array>
          </mxGeometry>
        </mxCell>
        <mxCell id="7kykOVdzn0JzqWnfIJqe-128" value="" style="edgeStyle=none;orthogonalLoop=1;jettySize=auto;html=1;rounded=0;entryX=1;entryY=0.5;entryDx=0;entryDy=0;exitX=0;exitY=0.5;exitDx=0;exitDy=0;strokeColor=#FF33FF;strokeWidth=2;" parent="1" source="7kykOVdzn0JzqWnfIJqe-55" target="7kykOVdzn0JzqWnfIJqe-54" edge="1">
          <mxGeometry width="80" relative="1" as="geometry">
            <mxPoint x="1050" y="1030" as="sourcePoint" />
            <mxPoint x="1130" y="1030" as="targetPoint" />
            <Array as="points" />
          </mxGeometry>
        </mxCell>
        <mxCell id="7kykOVdzn0JzqWnfIJqe-138" value="" style="group" parent="1" vertex="1" connectable="0">
          <mxGeometry x="-420" y="1560" width="1101" height="170" as="geometry" />
        </mxCell>
        <mxCell id="7kykOVdzn0JzqWnfIJqe-85" value="DMP数据库-mysql" style="rounded=0;whiteSpace=wrap;html=1;align=right;verticalAlign=top;fillColor=#e1d5e7;strokeColor=#9673a6;" parent="7kykOVdzn0JzqWnfIJqe-138" vertex="1">
          <mxGeometry y="-14.782608695652172" width="1101" height="184.78260869565216" as="geometry" />
        </mxCell>
        <mxCell id="0cAWCuBhK8sL3BYv6XPo-44" value="" style="edgeStyle=orthogonalEdgeStyle;rounded=0;orthogonalLoop=1;jettySize=auto;html=1;" parent="7kykOVdzn0JzqWnfIJqe-138" source="7kykOVdzn0JzqWnfIJqe-86" target="0cAWCuBhK8sL3BYv6XPo-42" edge="1">
          <mxGeometry relative="1" as="geometry">
            <Array as="points">
              <mxPoint x="531.4399185336049" y="88.69565217391303" />
              <mxPoint x="206.29735234215886" y="88.69565217391303" />
            </Array>
          </mxGeometry>
        </mxCell>
        <mxCell id="7kykOVdzn0JzqWnfIJqe-86" value="&lt;div style=&quot;resize: none; outline: none; font-size: 13px; color: rgb(50, 50, 50); font-family: &amp;quot;Microsoft YaHei&amp;quot;, 微软雅黑, Arial;&quot;&gt;&lt;span style=&quot;background-color: rgba(255, 255, 255, 0.01);&quot;&gt;mysql-one.dns.lgd&lt;br&gt;&lt;/span&gt;10.25.1.230&lt;/div&gt;" style="rounded=0;whiteSpace=wrap;html=1;" parent="7kykOVdzn0JzqWnfIJqe-138" vertex="1">
          <mxGeometry x="262.3564154786151" y="14.782608695652172" width="538.1670061099796" height="59.13043478260869" as="geometry" />
        </mxCell>
        <mxCell id="0cAWCuBhK8sL3BYv6XPo-42" value="&lt;div style=&quot;resize: none; outline: none; font-size: 13px; color: rgb(50, 50, 50); font-family: &amp;quot;Microsoft YaHei&amp;quot;, 微软雅黑, Arial;&quot;&gt;&lt;span style=&quot;background-color: rgba(255, 255, 255, 0.01);&quot;&gt;dmp-slb-01&lt;br&gt;&lt;/span&gt;10.25.1.217&lt;/div&gt;&lt;div style=&quot;resize: none; outline: none; font-size: 13px; color: rgb(50, 50, 50); font-family: &amp;quot;Microsoft YaHei&amp;quot;, 微软雅黑, Arial;&quot;&gt;8C/32G&lt;/div&gt;" style="rounded=0;whiteSpace=wrap;html=1;" parent="7kykOVdzn0JzqWnfIJqe-138" vertex="1">
          <mxGeometry x="26.90835030549898" y="103.4782608695652" width="358.7780040733197" height="59.13043478260869" as="geometry" />
        </mxCell>
        <mxCell id="0cAWCuBhK8sL3BYv6XPo-46" value="&lt;span style=&quot;color: rgb(50, 50, 50); font-family: &amp;quot;Microsoft YaHei&amp;quot;, 微软雅黑, Arial; font-size: 13px; background-color: rgba(255, 255, 255, 0.01);&quot;&gt;dmp-slb-02&lt;br&gt;&lt;/span&gt;&lt;span style=&quot;color: rgb(50, 50, 50); font-family: &amp;quot;Microsoft YaHei&amp;quot;, 微软雅黑, Arial; font-size: 13px;&quot;&gt;10.25.1.218&lt;/span&gt;&lt;div&gt;&lt;span style=&quot;color: rgb(50, 50, 50); font-family: &amp;quot;Microsoft YaHei&amp;quot;, 微软雅黑, Arial; font-size: 13px;&quot;&gt;8C/32G&lt;/span&gt;&lt;/div&gt;" style="whiteSpace=wrap;html=1;rounded=0;" parent="7kykOVdzn0JzqWnfIJqe-138" vertex="1">
          <mxGeometry x="695.132382892057" y="103.4782608695652" width="358.7780040733197" height="59.13043478260869" as="geometry" />
        </mxCell>
        <mxCell id="0cAWCuBhK8sL3BYv6XPo-47" value="" style="edgeStyle=orthogonalEdgeStyle;rounded=0;orthogonalLoop=1;jettySize=auto;html=1;entryX=0.5;entryY=0;entryDx=0;entryDy=0;" parent="7kykOVdzn0JzqWnfIJqe-138" source="7kykOVdzn0JzqWnfIJqe-86" target="0cAWCuBhK8sL3BYv6XPo-46" edge="1">
          <mxGeometry relative="1" as="geometry">
            <Array as="points">
              <mxPoint x="531.4399185336049" y="88.69565217391303" />
              <mxPoint x="874.5213849287169" y="88.69565217391303" />
            </Array>
          </mxGeometry>
        </mxCell>
        <mxCell id="7kykOVdzn0JzqWnfIJqe-139" value="" style="edgeStyle=none;orthogonalLoop=1;jettySize=auto;html=1;rounded=0;entryX=0;entryY=0.5;entryDx=0;entryDy=0;strokeColor=#3333FF;strokeWidth=2;startArrow=classic;startFill=1;fillColor=#0050ef;" parent="1" target="7kykOVdzn0JzqWnfIJqe-58" edge="1">
          <mxGeometry width="80" relative="1" as="geometry">
            <mxPoint x="360" y="760" as="sourcePoint" />
            <mxPoint x="750" y="870" as="targetPoint" />
            <Array as="points">
              <mxPoint x="400" y="760" />
              <mxPoint x="400" y="695" />
            </Array>
          </mxGeometry>
        </mxCell>
        <mxCell id="7kykOVdzn0JzqWnfIJqe-59" value="&lt;div&gt;&lt;font face=&quot;Microsoft YaHei, 微软雅黑, Arial&quot; color=&quot;#323232&quot;&gt;&lt;span style=&quot;font-size: 13px; background-color: rgba(255, 255, 255, 0.01);&quot;&gt;外部接口管理&lt;/span&gt;&lt;/font&gt;&lt;/div&gt;&lt;div&gt;&lt;font face=&quot;Microsoft YaHei, 微软雅黑, Arial&quot; color=&quot;#323232&quot;&gt;&lt;span style=&quot;font-size: 13px;&quot;&gt;api-manage&lt;/span&gt;&lt;/font&gt;&lt;/div&gt;&lt;div&gt;&lt;font face=&quot;Microsoft YaHei, 微软雅黑, Arial&quot; color=&quot;#323232&quot;&gt;&lt;span style=&quot;background-color: rgba(255, 255, 255, 0.01);&quot;&gt;&lt;span style=&quot;font-size: 13px;&quot;&gt;10.25.1.90 | 10.25.1.61&lt;/span&gt;&lt;br style=&quot;background-color: rgb(236, 236, 236); color: rgb(50, 50, 50); font-size: 13px;&quot;&gt;&lt;span style=&quot;color: rgb(50, 50, 50); font-size: 13px; background-color: rgba(255, 255, 255, 0.01);&quot;&gt;4C/8G&lt;/span&gt;&lt;span style=&quot;font-size: 13px;&quot;&gt;&lt;/span&gt;&lt;/span&gt;&lt;/font&gt;&lt;/div&gt;" style="whiteSpace=wrap;html=1;rounded=0;fillColor=#cdeb8b;strokeColor=#36393d;align=center;" parent="1" vertex="1">
          <mxGeometry x="766.75" y="660" width="150" height="70" as="geometry" />
        </mxCell>
        <mxCell id="iITyiV8JnJJ13BIh8I1--3" value="ymt.lgd.com&lt;div&gt;一码通平台&lt;/div&gt;" style="shape=process;whiteSpace=wrap;html=1;backgroundOutline=1;fillColor=#f8cecc;strokeColor=#b85450;" parent="1" vertex="1">
          <mxGeometry x="866" y="410" width="120" height="60" as="geometry" />
        </mxCell>
        <mxCell id="iITyiV8JnJJ13BIh8I1--4" value="" style="edgeStyle=none;orthogonalLoop=1;jettySize=auto;html=1;rounded=0;entryX=1;entryY=0.5;entryDx=0;entryDy=0;exitX=0;exitY=0.5;exitDx=0;exitDy=0;strokeColor=#FF33FF;strokeWidth=2;" parent="1" source="iITyiV8JnJJ13BIh8I1--3" target="0cAWCuBhK8sL3BYv6XPo-22" edge="1">
          <mxGeometry width="80" relative="1" as="geometry">
            <mxPoint x="1150" y="510" as="sourcePoint" />
            <mxPoint x="1230" y="510" as="targetPoint" />
            <Array as="points" />
          </mxGeometry>
        </mxCell>
        <mxCell id="7kykOVdzn0JzqWnfIJqe-58" value="&lt;div&gt;&lt;font face=&quot;Microsoft YaHei, 微软雅黑, Arial&quot; color=&quot;#323232&quot;&gt;&lt;span style=&quot;font-size: 13px; background-color: rgba(255, 255, 255, 0.01);&quot;&gt;网关服务&lt;/span&gt;&lt;/font&gt;&lt;/div&gt;&lt;div style=&quot;&quot;&gt;&lt;font face=&quot;helvetica, arial, verdana, sans-serif&quot;&gt;&lt;span style=&quot;font-size: 13px;&quot;&gt;gateway&lt;/span&gt;&lt;/font&gt;&lt;/div&gt;&lt;span style=&quot;color: rgb(50, 50, 50); font-family: &amp;quot;Microsoft YaHei&amp;quot;, 微软雅黑, Arial; font-size: 13px; background-color: rgba(255, 255, 255, 0.01);&quot;&gt;10.25.1.24 | 10.25.1.49&lt;/span&gt;&lt;div&gt;&lt;span style=&quot;color: rgb(50, 50, 50); font-family: &amp;quot;Microsoft YaHei&amp;quot;, 微软雅黑, Arial; font-size: 13px; background-color: rgba(255, 255, 255, 0.01);&quot;&gt;4C/8G&lt;/span&gt;&lt;/div&gt;" style="rounded=0;whiteSpace=wrap;html=1;fillColor=#cdeb8b;strokeColor=#36393d;align=center;" parent="1" vertex="1">
          <mxGeometry x="540" y="660" width="150" height="70" as="geometry" />
        </mxCell>
        <mxCell id="7kykOVdzn0JzqWnfIJqe-62" value="&lt;div&gt;&lt;font face=&quot;Microsoft YaHei, 微软雅黑, Arial&quot; color=&quot;#323232&quot;&gt;&lt;span style=&quot;font-size: 13px; background-color: rgba(255, 255, 255, 0.01);&quot;&gt;统一用户系统&lt;/span&gt;&lt;/font&gt;&lt;/div&gt;&lt;span style=&quot;color: rgb(50, 50, 50); font-family: &amp;quot;Microsoft YaHei&amp;quot;, 微软雅黑, Arial; font-size: 13px; background-color: rgba(255, 255, 255, 0.01);&quot;&gt;lgd-user&lt;/span&gt;&lt;br style=&quot;color: rgb(50, 50, 50); font-family: &amp;quot;Microsoft YaHei&amp;quot;, 微软雅黑, Arial; font-size: 13px;&quot;&gt;&lt;span style=&quot;color: rgb(50, 50, 50); font-family: &amp;quot;Microsoft YaHei&amp;quot;, 微软雅黑, Arial; font-size: 13px; background-color: rgba(255, 255, 255, 0.01);&quot;&gt;10.25.1.52 | 10.25.1.80&lt;/span&gt;&lt;br style=&quot;color: rgb(50, 50, 50); font-family: &amp;quot;Microsoft YaHei&amp;quot;, 微软雅黑, Arial; font-size: 13px;&quot;&gt;&lt;span style=&quot;color: rgb(50, 50, 50); font-family: &amp;quot;Microsoft YaHei&amp;quot;, 微软雅黑, Arial; font-size: 13px; background-color: rgba(255, 255, 255, 0.01);&quot;&gt;4C/8G&lt;/span&gt;" style="rounded=0;whiteSpace=wrap;html=1;fillColor=#cdeb8b;strokeColor=#36393d;align=center;" parent="1" vertex="1">
          <mxGeometry x="540" y="790" width="150" height="70" as="geometry" />
        </mxCell>
        <mxCell id="iITyiV8JnJJ13BIh8I1--6" value="" style="edgeStyle=none;orthogonalLoop=1;jettySize=auto;html=1;rounded=0;exitX=1;exitY=0.5;exitDx=0;exitDy=0;entryX=0;entryY=0.5;entryDx=0;entryDy=0;strokeColor=#FF0000;strokeWidth=2;" parent="1" source="7kykOVdzn0JzqWnfIJqe-58" target="7kykOVdzn0JzqWnfIJqe-59" edge="1">
          <mxGeometry width="80" relative="1" as="geometry">
            <mxPoint x="1270" y="730" as="sourcePoint" />
            <mxPoint x="1350" y="730" as="targetPoint" />
            <Array as="points" />
          </mxGeometry>
        </mxCell>
        <mxCell id="iITyiV8JnJJ13BIh8I1--8" value="" style="edgeStyle=none;orthogonalLoop=1;jettySize=auto;html=1;rounded=0;exitX=0.5;exitY=1;exitDx=0;exitDy=0;entryX=0.5;entryY=0;entryDx=0;entryDy=0;strokeColor=#FF33FF;strokeWidth=2;" parent="1" source="7kykOVdzn0JzqWnfIJqe-8" target="7kykOVdzn0JzqWnfIJqe-58" edge="1">
          <mxGeometry width="80" relative="1" as="geometry">
            <mxPoint x="1270" y="730" as="sourcePoint" />
            <mxPoint x="1350" y="730" as="targetPoint" />
            <Array as="points">
              <mxPoint x="530" y="630" />
            </Array>
          </mxGeometry>
        </mxCell>
        <mxCell id="iITyiV8JnJJ13BIh8I1--9" value="" style="edgeStyle=none;orthogonalLoop=1;jettySize=auto;html=1;rounded=0;exitX=0.5;exitY=1;exitDx=0;exitDy=0;entryX=0.5;entryY=0;entryDx=0;entryDy=0;strokeWidth=2;strokeColor=#FF33FF;" parent="1" source="7kykOVdzn0JzqWnfIJqe-58" target="7kykOVdzn0JzqWnfIJqe-62" edge="1">
          <mxGeometry width="80" relative="1" as="geometry">
            <mxPoint x="1270" y="730" as="sourcePoint" />
            <mxPoint x="1350" y="730" as="targetPoint" />
            <Array as="points" />
          </mxGeometry>
        </mxCell>
        <mxCell id="iITyiV8JnJJ13BIh8I1--10" value="" style="edgeStyle=none;orthogonalLoop=1;jettySize=auto;html=1;rounded=0;exitX=1;exitY=0.5;exitDx=0;exitDy=0;entryX=0.5;entryY=1;entryDx=0;entryDy=0;strokeColor=#FF33FF;strokeWidth=2;" parent="1" source="7kykOVdzn0JzqWnfIJqe-62" target="7kykOVdzn0JzqWnfIJqe-59" edge="1">
          <mxGeometry width="80" relative="1" as="geometry">
            <mxPoint x="1270" y="730" as="sourcePoint" />
            <mxPoint x="1350" y="730" as="targetPoint" />
            <Array as="points">
              <mxPoint x="842" y="825" />
            </Array>
          </mxGeometry>
        </mxCell>
        <mxCell id="iITyiV8JnJJ13BIh8I1--11" value="" style="group" parent="1" vertex="1" connectable="0">
          <mxGeometry x="1330" y="670" width="400" height="150" as="geometry" />
        </mxCell>
        <mxCell id="7kykOVdzn0JzqWnfIJqe-66" value="" style="rounded=0;whiteSpace=wrap;html=1;fillColor=none;strokeWidth=2;" parent="iITyiV8JnJJ13BIh8I1--11" vertex="1">
          <mxGeometry width="400" height="150" as="geometry" />
        </mxCell>
        <mxCell id="7kykOVdzn0JzqWnfIJqe-60" value="&lt;div&gt;&lt;font face=&quot;Microsoft YaHei, 微软雅黑, Arial&quot; color=&quot;#323232&quot;&gt;&lt;span style=&quot;font-size: 13px; background-color: rgba(255, 255, 255, 0.01);&quot;&gt;注册中心&lt;/span&gt;&lt;/font&gt;&lt;/div&gt;&lt;span style=&quot;background-color: rgba(255, 255, 255, 0.01); color: rgb(50, 50, 50);&quot;&gt;&lt;font face=&quot;Microsoft YaHei, 微软雅黑, Arial&quot; color=&quot;#323232&quot;&gt;&lt;span style=&quot;font-size: 13px;&quot;&gt;eureka&lt;/span&gt;&lt;/font&gt;&lt;/span&gt;&lt;div&gt;&lt;span style=&quot;color: rgb(50, 50, 50); font-family: &amp;quot;Microsoft YaHei&amp;quot;, 微软雅黑, Arial; font-size: 13px; background-color: rgba(255, 255, 255, 0.01);&quot;&gt;10.25.1.23 | 10.25.1.48&lt;/span&gt;&lt;br style=&quot;color: rgb(50, 50, 50); font-family: &amp;quot;Microsoft YaHei&amp;quot;, 微软雅黑, Arial; font-size: 13px;&quot;&gt;&lt;span style=&quot;color: rgb(50, 50, 50); font-family: &amp;quot;Microsoft YaHei&amp;quot;, 微软雅黑, Arial; font-size: 13px; background-color: rgba(255, 255, 255, 0.01);&quot;&gt;2C/4G | 4C/8G&lt;/span&gt;&lt;/div&gt;" style="rounded=0;whiteSpace=wrap;html=1;fillColor=#cdeb8b;strokeColor=#36393d;align=center;" parent="iITyiV8JnJJ13BIh8I1--11" vertex="1">
          <mxGeometry x="23.25" y="40" width="150" height="70" as="geometry" />
        </mxCell>
        <mxCell id="7kykOVdzn0JzqWnfIJqe-61" value="&lt;div&gt;&lt;font face=&quot;Microsoft YaHei, 微软雅黑, Arial&quot; color=&quot;#323232&quot;&gt;&lt;span style=&quot;font-size: 13px; background-color: rgba(255, 255, 255, 0.01);&quot;&gt;配置中心&lt;/span&gt;&lt;/font&gt;&lt;/div&gt;&lt;span style=&quot;color: rgb(50, 50, 50); font-family: &amp;quot;Microsoft YaHei&amp;quot;, 微软雅黑, Arial; font-size: 13px; background-color: rgba(255, 255, 255, 0.01);&quot;&gt;config&lt;/span&gt;&lt;br style=&quot;color: rgb(50, 50, 50); font-family: &amp;quot;Microsoft YaHei&amp;quot;, 微软雅黑, Arial; font-size: 13px;&quot;&gt;&lt;span style=&quot;color: rgb(50, 50, 50); font-family: &amp;quot;Microsoft YaHei&amp;quot;, 微软雅黑, Arial; font-size: 13px; background-color: rgba(255, 255, 255, 0.01);&quot;&gt;10.25.1.30 | 10.25.1.60&lt;/span&gt;&lt;br style=&quot;color: rgb(50, 50, 50); font-family: &amp;quot;Microsoft YaHei&amp;quot;, 微软雅黑, Arial; font-size: 13px;&quot;&gt;&lt;span style=&quot;color: rgb(50, 50, 50); font-family: &amp;quot;Microsoft YaHei&amp;quot;, 微软雅黑, Arial; font-size: 13px; background-color: rgba(255, 255, 255, 0.01);&quot;&gt;2C/4G&lt;/span&gt;" style="rounded=0;whiteSpace=wrap;html=1;fillColor=#cdeb8b;strokeColor=#36393d;align=center;" parent="iITyiV8JnJJ13BIh8I1--11" vertex="1">
          <mxGeometry x="218.25" y="40" width="150" height="70" as="geometry" />
        </mxCell>
        <mxCell id="iITyiV8JnJJ13BIh8I1--15" value="" style="edgeStyle=none;orthogonalLoop=1;jettySize=auto;html=1;rounded=0;exitX=0.75;exitY=1;exitDx=0;exitDy=0;entryX=0.5;entryY=0;entryDx=0;entryDy=0;strokeColor=#FF33FF;strokeWidth=2;" parent="1" source="7kykOVdzn0JzqWnfIJqe-62" target="iITyiV8JnJJ13BIh8I1--13" edge="1">
          <mxGeometry width="80" relative="1" as="geometry">
            <mxPoint x="1210" y="980" as="sourcePoint" />
            <mxPoint x="1290" y="980" as="targetPoint" />
            <Array as="points">
              <mxPoint x="652" y="900" />
              <mxPoint x="1360" y="900" />
            </Array>
          </mxGeometry>
        </mxCell>
        <mxCell id="iITyiV8JnJJ13BIh8I1--16" value="" style="edgeStyle=none;orthogonalLoop=1;jettySize=auto;html=1;rounded=0;exitX=1;exitY=0.5;exitDx=0;exitDy=0;strokeColor=#FF0000;strokeWidth=2;entryX=0.75;entryY=0;entryDx=0;entryDy=0;startArrow=classic;startFill=1;" parent="1" source="7kykOVdzn0JzqWnfIJqe-59" target="7kykOVdzn0JzqWnfIJqe-44" edge="1">
          <mxGeometry width="80" relative="1" as="geometry">
            <mxPoint x="1220" y="720" as="sourcePoint" />
            <mxPoint x="1010" y="1010" as="targetPoint" />
            <Array as="points">
              <mxPoint x="1060" y="695" />
            </Array>
          </mxGeometry>
        </mxCell>
        <mxCell id="iITyiV8JnJJ13BIh8I1--17" value="" style="edgeStyle=none;orthogonalLoop=1;jettySize=auto;html=1;rounded=0;exitX=0.5;exitY=1;exitDx=0;exitDy=0;strokeColor=light-dark(#6600CC,#EDEDED);strokeWidth=2;" parent="1" source="7kykOVdzn0JzqWnfIJqe-62" edge="1">
          <mxGeometry width="80" relative="1" as="geometry">
            <mxPoint x="1130" y="720" as="sourcePoint" />
            <mxPoint x="990" y="1012" as="targetPoint" />
            <Array as="points">
              <mxPoint x="615" y="920" />
              <mxPoint x="990" y="920" />
            </Array>
          </mxGeometry>
        </mxCell>
        <mxCell id="7kykOVdzn0JzqWnfIJqe-43" value="&lt;div&gt;&lt;font face=&quot;Microsoft YaHei, 微软雅黑, Arial&quot; color=&quot;#323232&quot;&gt;&lt;span style=&quot;font-size: 13px; background-color: rgba(255, 255, 255, 0.01);&quot;&gt;支付管理&lt;/span&gt;&lt;/font&gt;&lt;/div&gt;&lt;span style=&quot;font-family: helvetica, arial, verdana, sans-serif; font-size: 13px;&quot;&gt;payment-manage&lt;/span&gt;&lt;br style=&quot;color: rgb(50, 50, 50); font-family: &amp;quot;Microsoft YaHei&amp;quot;, 微软雅黑, Arial; font-size: 13px;&quot;&gt;&lt;span style=&quot;color: rgb(50, 50, 50); font-family: &amp;quot;Microsoft YaHei&amp;quot;, 微软雅黑, Arial; font-size: 13px; background-color: rgba(255, 255, 255, 0.01);&quot;&gt;10.25.1.65 | 10.25.1.91&lt;/span&gt;&lt;br style=&quot;color: rgb(50, 50, 50); font-family: &amp;quot;Microsoft YaHei&amp;quot;, 微软雅黑, Arial; font-size: 13px;&quot;&gt;&lt;span style=&quot;color: rgb(50, 50, 50); font-family: &amp;quot;Microsoft YaHei&amp;quot;, 微软雅黑, Arial; font-size: 13px; background-color: rgba(255, 255, 255, 0.01);&quot;&gt;8C/8G&lt;/span&gt;" style="rounded=0;whiteSpace=wrap;html=1;fillColor=#cdeb8b;strokeColor=#36393d;align=center;" parent="1" vertex="1">
          <mxGeometry x="651" y="1015" width="150" height="70" as="geometry" />
        </mxCell>
        <mxCell id="7kykOVdzn0JzqWnfIJqe-11" value="景区云-nginx" style="rounded=0;whiteSpace=wrap;html=1;fillColor=none;dashed=1;strokeWidth=2;perimeterSpacing=0;align=right;verticalAlign=top;" parent="1" vertex="1">
          <mxGeometry x="207" y="340" width="280" height="200" as="geometry" />
        </mxCell>
        <mxCell id="7kykOVdzn0JzqWnfIJqe-44" value="&lt;div&gt;&lt;font face=&quot;Microsoft YaHei, 微软雅黑, Arial&quot; color=&quot;#323232&quot;&gt;&lt;span style=&quot;font-size: 13px; background-color: rgba(255, 255, 255, 0.01);&quot;&gt;售票管理&lt;/span&gt;&lt;/font&gt;&lt;/div&gt;&lt;span style=&quot;color: rgb(50, 50, 50); font-family: &amp;quot;Microsoft YaHei&amp;quot;, 微软雅黑, Arial; font-size: 13px; background-color: rgba(255, 255, 255, 0.01);&quot;&gt;ticket-sell&lt;/span&gt;&lt;br style=&quot;color: rgb(50, 50, 50); font-family: &amp;quot;Microsoft YaHei&amp;quot;, 微软雅黑, Arial; font-size: 13px;&quot;&gt;&lt;span style=&quot;color: rgb(50, 50, 50); font-family: &amp;quot;Microsoft YaHei&amp;quot;, 微软雅黑, Arial; font-size: 13px; background-color: rgba(255, 255, 255, 0.01);&quot;&gt;10.25.1.67 | 10.25.1.95 |&amp;nbsp;&lt;/span&gt;&lt;span style=&quot;color: rgb(50, 50, 50); font-family: &amp;quot;Microsoft YaHei&amp;quot;, 微软雅黑, Arial; font-size: 13px; background-color: rgba(255, 255, 255, 0.01);&quot;&gt;10.25.1.130 | &lt;/span&gt;&lt;span style=&quot;font-family: &amp;quot;Microsoft YaHei&amp;quot;, 微软雅黑, Arial; font-size: 13px; background-color: rgba(255, 255, 255, 0.01); color: rgb(50, 50, 50);&quot;&gt;&lt;font style=&quot;color: rgb(255, 0, 0);&quot;&gt;10.25.1.118&lt;/font&gt;&lt;/span&gt;&lt;br style=&quot;color: rgb(50, 50, 50); font-family: &amp;quot;Microsoft YaHei&amp;quot;, 微软雅黑, Arial; font-size: 13px;&quot;&gt;&lt;span style=&quot;color: rgb(50, 50, 50); font-family: &amp;quot;Microsoft YaHei&amp;quot;, 微软雅黑, Arial; font-size: 13px; background-color: rgba(255, 255, 255, 0.01);&quot;&gt;4C/16G | &lt;/span&gt;&lt;span style=&quot;font-family: &amp;quot;Microsoft YaHei&amp;quot;, 微软雅黑, Arial; font-size: 13px; background-color: rgba(255, 255, 255, 0.01); color: rgb(50, 50, 50);&quot;&gt;&lt;font style=&quot;color: rgb(255, 0, 0);&quot;&gt;8C/16G&lt;/font&gt;&lt;/span&gt;" style="whiteSpace=wrap;html=1;rounded=0;fillColor=#cdeb8b;strokeColor=#36393d;align=center;" parent="1" vertex="1">
          <mxGeometry x="833" y="1015" width="308" height="70" as="geometry" />
        </mxCell>
        <mxCell id="iITyiV8JnJJ13BIh8I1--18" value="" style="edgeStyle=none;orthogonalLoop=1;jettySize=auto;html=1;rounded=0;exitX=0;exitY=0.75;exitDx=0;exitDy=0;entryX=0.25;entryY=0;entryDx=0;entryDy=0;strokeColor=#B46504;strokeWidth=2;fillColor=#a0522d;" parent="1" source="7kykOVdzn0JzqWnfIJqe-58" target="7kykOVdzn0JzqWnfIJqe-91" edge="1">
          <mxGeometry width="80" relative="1" as="geometry">
            <mxPoint x="1280" y="650" as="sourcePoint" />
            <mxPoint x="1360" y="650" as="targetPoint" />
            <Array as="points">
              <mxPoint x="503" y="713" />
            </Array>
          </mxGeometry>
        </mxCell>
        <mxCell id="iITyiV8JnJJ13BIh8I1--19" value="" style="edgeStyle=none;orthogonalLoop=1;jettySize=auto;html=1;rounded=0;exitX=0.75;exitY=1;exitDx=0;exitDy=0;entryX=0.5;entryY=0;entryDx=0;entryDy=0;strokeWidth=2;strokeColor=#3333FF;startArrow=none;startFill=0;" parent="1" source="7kykOVdzn0JzqWnfIJqe-58" target="7kykOVdzn0JzqWnfIJqe-43" edge="1">
          <mxGeometry width="80" relative="1" as="geometry">
            <mxPoint x="1280" y="650" as="sourcePoint" />
            <mxPoint x="1360" y="650" as="targetPoint" />
            <Array as="points">
              <mxPoint x="652" y="770" />
              <mxPoint x="726" y="770" />
            </Array>
          </mxGeometry>
        </mxCell>
        <mxCell id="iITyiV8JnJJ13BIh8I1--20" value="" style="edgeStyle=none;orthogonalLoop=1;jettySize=auto;html=1;rounded=0;exitX=0.75;exitY=1;exitDx=0;exitDy=0;entryX=0.5;entryY=0;entryDx=0;entryDy=0;fillColor=#0050ef;strokeColor=#3333FF;strokeWidth=2;startArrow=classic;startFill=1;" parent="1" source="7kykOVdzn0JzqWnfIJqe-59" target="7kykOVdzn0JzqWnfIJqe-44" edge="1">
          <mxGeometry width="80" relative="1" as="geometry">
            <mxPoint x="1080" y="650" as="sourcePoint" />
            <mxPoint x="1160" y="650" as="targetPoint" />
            <Array as="points" />
          </mxGeometry>
        </mxCell>
        <mxCell id="7kykOVdzn0JzqWnfIJqe-6" value="nginx-38&lt;div&gt;10.25.1.38&lt;/div&gt;" style="rounded=0;whiteSpace=wrap;html=1;verticalAlign=top;" parent="1" vertex="1">
          <mxGeometry x="214" y="450" width="120" height="50" as="geometry" />
        </mxCell>
        <mxCell id="7kykOVdzn0JzqWnfIJqe-8" value="nginx-56&lt;div&gt;10.25.1.56&lt;/div&gt;" style="whiteSpace=wrap;html=1;rounded=0;verticalAlign=top;" parent="1" vertex="1">
          <mxGeometry x="355" y="450" width="120" height="50" as="geometry" />
        </mxCell>
        <mxCell id="hrGcY8F_n0ikThURvunG-13" value="&lt;span style=&quot;font-size: 11px; text-wrap-mode: nowrap;&quot;&gt;防火墙&lt;/span&gt;&lt;div style=&quot;&quot;&gt;&lt;span style=&quot;font-size: 11px; text-wrap-mode: nowrap;&quot;&gt;221.2.140.230&lt;/span&gt;&lt;/div&gt;" style="whiteSpace=wrap;html=1;verticalAlign=middle;fillColor=#dae8fc;strokeColor=#6c8ebf;rounded=0;" parent="1" vertex="1">
          <mxGeometry x="69" y="200" width="120" height="60" as="geometry" />
        </mxCell>
        <mxCell id="hrGcY8F_n0ikThURvunG-14" value="" style="edgeStyle=orthogonalEdgeStyle;rounded=0;orthogonalLoop=1;jettySize=auto;html=1;strokeColor=#FF0000;strokeWidth=2;" parent="1" source="umgCvMGF8Q4jKKfUTwUB-1" target="hrGcY8F_n0ikThURvunG-13" edge="1">
          <mxGeometry relative="1" as="geometry" />
        </mxCell>
        <mxCell id="hrGcY8F_n0ikThURvunG-15" value="" style="edgeStyle=none;orthogonalLoop=1;jettySize=auto;html=1;rounded=0;exitX=1;exitY=0.75;exitDx=0;exitDy=0;entryX=0;entryY=0.75;entryDx=0;entryDy=0;strokeColor=#3333FF;strokeWidth=2;startArrow=classic;startFill=1;" parent="1" source="7kykOVdzn0JzqWnfIJqe-58" target="7kykOVdzn0JzqWnfIJqe-59" edge="1">
          <mxGeometry width="80" relative="1" as="geometry">
            <mxPoint x="820" y="570" as="sourcePoint" />
            <mxPoint x="900" y="570" as="targetPoint" />
            <Array as="points" />
          </mxGeometry>
        </mxCell>
        <mxCell id="hrGcY8F_n0ikThURvunG-16" value="" style="edgeStyle=none;orthogonalLoop=1;jettySize=auto;html=1;rounded=0;entryX=0;entryY=0.5;entryDx=0;entryDy=0;startArrow=classic;startFill=1;endArrow=none;endFill=0;exitX=1;exitY=0.25;exitDx=0;exitDy=0;strokeColor=#3333FF;strokeWidth=2;" parent="1" source="7kykOVdzn0JzqWnfIJqe-13" target="7kykOVdzn0JzqWnfIJqe-43" edge="1">
          <mxGeometry width="80" relative="1" as="geometry">
            <mxPoint x="360" y="800" as="sourcePoint" />
            <mxPoint x="900" y="890" as="targetPoint" />
            <Array as="points">
              <mxPoint x="410" y="1050" />
            </Array>
          </mxGeometry>
        </mxCell>
        <mxCell id="hrGcY8F_n0ikThURvunG-17" value="" style="edgeStyle=none;orthogonalLoop=1;jettySize=auto;html=1;rounded=0;entryX=0;entryY=0;entryDx=0;entryDy=0;strokeColor=#3333FF;strokeWidth=2;startArrow=classic;startFill=1;endArrow=none;endFill=0;" parent="1" target="7kykOVdzn0JzqWnfIJqe-59" edge="1">
          <mxGeometry width="80" relative="1" as="geometry">
            <mxPoint x="362" y="700" as="sourcePoint" />
            <mxPoint x="850" y="460" as="targetPoint" />
            <Array as="points">
              <mxPoint x="580" y="620" />
            </Array>
          </mxGeometry>
        </mxCell>
        <mxCell id="hrGcY8F_n0ikThURvunG-19" value="景区云调营销云（核销通知）" style="edgeLabel;html=1;align=center;verticalAlign=middle;resizable=0;points=[];" parent="hrGcY8F_n0ikThURvunG-17" vertex="1" connectable="0">
          <mxGeometry x="-0.0138" y="6" relative="1" as="geometry">
            <mxPoint as="offset" />
          </mxGeometry>
        </mxCell>
        <mxCell id="hrGcY8F_n0ikThURvunG-18" value="" style="edgeStyle=none;orthogonalLoop=1;jettySize=auto;html=1;rounded=0;entryX=0.5;entryY=0;entryDx=0;entryDy=0;strokeColor=#FF0000;strokeWidth=2;startArrow=classic;startFill=1;endArrow=none;endFill=0;" parent="1" target="7kykOVdzn0JzqWnfIJqe-59" edge="1">
          <mxGeometry width="80" relative="1" as="geometry">
            <mxPoint x="842" y="90" as="sourcePoint" />
            <mxPoint x="850" y="460" as="targetPoint" />
            <Array as="points" />
          </mxGeometry>
        </mxCell>
        <mxCell id="0cAWCuBhK8sL3BYv6XPo-1" value="" style="edgeStyle=none;orthogonalLoop=1;jettySize=auto;html=1;rounded=0;exitX=0;exitY=0.5;exitDx=0;exitDy=0;entryX=0.5;entryY=0;entryDx=0;entryDy=0;strokeColor=#3333FF;strokeWidth=2;" parent="1" source="hrGcY8F_n0ikThURvunG-13" target="E1ot99NzgPepSdz1U0I7-3" edge="1">
          <mxGeometry width="80" relative="1" as="geometry">
            <mxPoint x="280" y="260" as="sourcePoint" />
            <mxPoint x="128.44000000000005" y="320" as="targetPoint" />
            <Array as="points">
              <mxPoint x="29" y="230" />
            </Array>
          </mxGeometry>
        </mxCell>
        <mxCell id="0cAWCuBhK8sL3BYv6XPo-3" value="lgdapi.weihaictg.com" style="rounded=0;whiteSpace=wrap;html=1;fillColor=#fad9d5;strokeColor=#ae4132;" parent="1" vertex="1">
          <mxGeometry x="640" y="29" width="280" height="60" as="geometry" />
        </mxCell>
        <mxCell id="0cAWCuBhK8sL3BYv6XPo-4" value="" style="edgeStyle=none;orthogonalLoop=1;jettySize=auto;html=1;rounded=0;entryX=1;entryY=0.5;entryDx=0;entryDy=0;exitX=0;exitY=0.5;exitDx=0;exitDy=0;strokeColor=#FF0000;strokeWidth=2;" parent="1" source="0cAWCuBhK8sL3BYv6XPo-3" target="umgCvMGF8Q4jKKfUTwUB-1" edge="1">
          <mxGeometry width="80" relative="1" as="geometry">
            <mxPoint x="930" y="60" as="sourcePoint" />
            <mxPoint x="1010" y="60" as="targetPoint" />
            <Array as="points" />
          </mxGeometry>
        </mxCell>
        <mxCell id="0cAWCuBhK8sL3BYv6XPo-5" value="" style="edgeStyle=none;orthogonalLoop=1;jettySize=auto;html=1;rounded=0;entryX=0.25;entryY=0;entryDx=0;entryDy=0;exitX=0.5;exitY=1;exitDx=0;exitDy=0;fillColor=#fad7ac;strokeColor=#b46504;strokeWidth=2;" parent="1" source="7kykOVdzn0JzqWnfIJqe-95" target="0cAWCuBhK8sL3BYv6XPo-3" edge="1">
          <mxGeometry width="80" relative="1" as="geometry">
            <mxPoint x="610" y="60" as="sourcePoint" />
            <mxPoint x="690" y="60" as="targetPoint" />
            <Array as="points">
              <mxPoint x="660" y="-40" />
              <mxPoint x="710" y="-40" />
            </Array>
          </mxGeometry>
        </mxCell>
        <mxCell id="0cAWCuBhK8sL3BYv6XPo-22" value="DNS" style="rounded=0;whiteSpace=wrap;html=1;fillColor=none;dashed=1;strokeWidth=2;perimeterSpacing=0;align=right;verticalAlign=top;" parent="1" vertex="1">
          <mxGeometry x="520" y="340" width="280" height="200" as="geometry" />
        </mxCell>
        <mxCell id="0cAWCuBhK8sL3BYv6XPo-23" value="VIP&lt;div&gt;10.25.1.33&lt;/div&gt;" style="rounded=0;whiteSpace=wrap;html=1;" parent="1" vertex="1">
          <mxGeometry x="599" y="350" width="120" height="50" as="geometry" />
        </mxCell>
        <mxCell id="0cAWCuBhK8sL3BYv6XPo-24" value="" style="edgeStyle=orthogonalEdgeStyle;rounded=0;orthogonalLoop=1;jettySize=auto;html=1;" parent="1" source="0cAWCuBhK8sL3BYv6XPo-23" target="0cAWCuBhK8sL3BYv6XPo-25" edge="1">
          <mxGeometry relative="1" as="geometry" />
        </mxCell>
        <mxCell id="0cAWCuBhK8sL3BYv6XPo-25" value="lgd-dns-nfs&lt;div&gt;10.25.1.47&lt;/div&gt;" style="rounded=0;whiteSpace=wrap;html=1;verticalAlign=top;" parent="1" vertex="1">
          <mxGeometry x="530" y="450" width="120" height="50" as="geometry" />
        </mxCell>
        <mxCell id="0cAWCuBhK8sL3BYv6XPo-26" value="lgd-dns2-39&lt;div&gt;10.25.1.39&lt;/div&gt;" style="whiteSpace=wrap;html=1;rounded=0;verticalAlign=top;" parent="1" vertex="1">
          <mxGeometry x="670" y="450" width="120" height="50" as="geometry" />
        </mxCell>
        <mxCell id="0cAWCuBhK8sL3BYv6XPo-27" value="" style="edgeStyle=orthogonalEdgeStyle;rounded=0;orthogonalLoop=1;jettySize=auto;html=1;" parent="1" source="0cAWCuBhK8sL3BYv6XPo-23" target="0cAWCuBhK8sL3BYv6XPo-26" edge="1">
          <mxGeometry relative="1" as="geometry" />
        </mxCell>
        <mxCell id="0cAWCuBhK8sL3BYv6XPo-28" value="" style="edgeStyle=none;orthogonalLoop=1;jettySize=auto;html=1;rounded=0;exitX=0.5;exitY=1;exitDx=0;exitDy=0;entryX=0.75;entryY=0;entryDx=0;entryDy=0;fillColor=#e51400;strokeColor=#FF0000;strokeWidth=2;" parent="1" source="7kykOVdzn0JzqWnfIJqe-100" target="0cAWCuBhK8sL3BYv6XPo-3" edge="1">
          <mxGeometry width="80" relative="1" as="geometry">
            <mxPoint x="620" y="140" as="sourcePoint" />
            <mxPoint x="700" y="140" as="targetPoint" />
            <Array as="points" />
          </mxGeometry>
        </mxCell>
        <mxCell id="0cAWCuBhK8sL3BYv6XPo-33" value="" style="edgeStyle=none;orthogonalLoop=1;jettySize=auto;html=1;rounded=0;entryX=0.5;entryY=0;entryDx=0;entryDy=0;exitX=1;exitY=0.5;exitDx=0;exitDy=0;strokeColor=#FF0000;strokeWidth=2;" parent="1" source="hrGcY8F_n0ikThURvunG-13" target="7kykOVdzn0JzqWnfIJqe-6" edge="1">
          <mxGeometry width="80" relative="1" as="geometry">
            <mxPoint x="130" y="320" as="sourcePoint" />
            <mxPoint x="740" y="320" as="targetPoint" />
            <Array as="points">
              <mxPoint x="274" y="230" />
            </Array>
          </mxGeometry>
        </mxCell>
        <mxCell id="0cAWCuBhK8sL3BYv6XPo-36" value="" style="edgeStyle=none;orthogonalLoop=1;jettySize=auto;html=1;rounded=0;startArrow=classic;startFill=1;strokeWidth=2;endArrow=none;endFill=0;strokeColor=#FF33FF;exitX=1;exitY=0.5;exitDx=0;exitDy=0;entryX=0;entryY=0.5;entryDx=0;entryDy=0;" parent="1" source="7kykOVdzn0JzqWnfIJqe-11" target="0cAWCuBhK8sL3BYv6XPo-22" edge="1">
          <mxGeometry width="80" relative="1" as="geometry">
            <mxPoint x="330" y="449" as="sourcePoint" />
            <mxPoint x="360" y="449" as="targetPoint" />
            <Array as="points" />
          </mxGeometry>
        </mxCell>
        <mxCell id="0cAWCuBhK8sL3BYv6XPo-54" value="" style="edgeStyle=none;orthogonalLoop=1;jettySize=auto;html=1;rounded=0;entryX=0.5;entryY=0;entryDx=0;entryDy=0;exitX=0.25;exitY=1;exitDx=0;exitDy=0;strokeColor=#FF33FF;strokeWidth=2;" parent="1" source="7kykOVdzn0JzqWnfIJqe-44" target="7kykOVdzn0JzqWnfIJqe-54" edge="1">
          <mxGeometry width="80" relative="1" as="geometry">
            <mxPoint x="820" y="1120" as="sourcePoint" />
            <mxPoint x="900" y="1120" as="targetPoint" />
            <Array as="points">
              <mxPoint x="910" y="1110" />
              <mxPoint x="585" y="1110" />
            </Array>
          </mxGeometry>
        </mxCell>
        <mxCell id="E1ot99NzgPepSdz1U0I7-2" value="营销云-nginx" style="rounded=0;whiteSpace=wrap;html=1;fillColor=none;dashed=1;strokeWidth=2;perimeterSpacing=0;align=right;verticalAlign=top;" parent="1" vertex="1">
          <mxGeometry x="-110" y="340" width="280" height="200" as="geometry" />
        </mxCell>
        <mxCell id="E1ot99NzgPepSdz1U0I7-3" value="VIP&lt;div&gt;10.25.1.195&lt;/div&gt;" style="rounded=0;whiteSpace=wrap;html=1;" parent="1" vertex="1">
          <mxGeometry x="-31" y="350" width="120" height="50" as="geometry" />
        </mxCell>
        <mxCell id="E1ot99NzgPepSdz1U0I7-4" value="nginx-167&lt;br&gt;&lt;div&gt;10.25.1.167&lt;/div&gt;" style="rounded=0;whiteSpace=wrap;html=1;verticalAlign=top;" parent="1" vertex="1">
          <mxGeometry x="-31" y="450" width="120" height="50" as="geometry" />
        </mxCell>
        <mxCell id="E1ot99NzgPepSdz1U0I7-6" value="" style="edgeStyle=orthogonalEdgeStyle;rounded=0;orthogonalLoop=1;jettySize=auto;html=1;strokeWidth=2;strokeColor=#3333FF;" parent="1" source="E1ot99NzgPepSdz1U0I7-3" target="E1ot99NzgPepSdz1U0I7-4" edge="1">
          <mxGeometry relative="1" as="geometry" />
        </mxCell>
        <mxCell id="E1ot99NzgPepSdz1U0I7-7" value="" style="edgeStyle=none;orthogonalLoop=1;jettySize=auto;html=1;rounded=0;entryX=0.5;entryY=0;entryDx=0;entryDy=0;exitX=0.5;exitY=1;exitDx=0;exitDy=0;strokeWidth=2;strokeColor=#3333FF;" parent="1" source="E1ot99NzgPepSdz1U0I7-4" target="7kykOVdzn0JzqWnfIJqe-13" edge="1">
          <mxGeometry width="80" relative="1" as="geometry">
            <mxPoint x="120" y="230" as="sourcePoint" />
            <mxPoint x="200" y="230" as="targetPoint" />
            <Array as="points" />
          </mxGeometry>
        </mxCell>
        <mxCell id="BMXMZfDa0N_tZ35hjSIX-4" value="" style="edgeStyle=none;orthogonalLoop=1;jettySize=auto;html=1;rounded=0;entryX=1;entryY=0.75;entryDx=0;entryDy=0;exitX=0.25;exitY=1;exitDx=0;exitDy=0;strokeColor=#FF33FF;strokeWidth=2;" parent="1" source="7kykOVdzn0JzqWnfIJqe-108" target="iITyiV8JnJJ13BIh8I1--3" edge="1">
          <mxGeometry width="80" relative="1" as="geometry">
            <mxPoint x="1110" y="460" as="sourcePoint" />
            <mxPoint x="1190" y="460" as="targetPoint" />
            <Array as="points">
              <mxPoint x="1230" y="450" />
            </Array>
          </mxGeometry>
        </mxCell>
        <mxCell id="E1ot99NzgPepSdz1U0I7-8" value="lgd-vpn-36&lt;div&gt;10.25.1.106&lt;/div&gt;&lt;div&gt;2C/4G&lt;/div&gt;" style="rounded=1;whiteSpace=wrap;html=1;" parent="1" vertex="1">
          <mxGeometry x="1071.5" y="430" width="120" height="60" as="geometry" />
        </mxCell>
        <mxCell id="BMXMZfDa0N_tZ35hjSIX-1" value="" style="edgeStyle=none;orthogonalLoop=1;jettySize=auto;html=1;rounded=0;entryX=1;entryY=0.25;entryDx=0;entryDy=0;exitX=0.25;exitY=1;exitDx=0;exitDy=0;strokeColor=#FF33FF;strokeWidth=2;" parent="1" source="7kykOVdzn0JzqWnfIJqe-106" target="iITyiV8JnJJ13BIh8I1--3" edge="1">
          <mxGeometry width="80" relative="1" as="geometry">
            <mxPoint x="1220" y="450" as="sourcePoint" />
            <mxPoint x="1300" y="450" as="targetPoint" />
            <Array as="points" />
          </mxGeometry>
        </mxCell>
        <mxCell id="BMXMZfDa0N_tZ35hjSIX-2" value="" style="edgeStyle=none;orthogonalLoop=1;jettySize=auto;html=1;rounded=0;exitX=0.5;exitY=1;exitDx=0;exitDy=0;entryX=0.641;entryY=-0.01;entryDx=0;entryDy=0;entryPerimeter=0;dashed=1;strokeColor=#FF33FF;strokeWidth=2;" parent="1" source="7kykOVdzn0JzqWnfIJqe-101" target="7kykOVdzn0JzqWnfIJqe-44" edge="1">
          <mxGeometry width="80" relative="1" as="geometry">
            <mxPoint x="1110" y="580" as="sourcePoint" />
            <mxPoint x="1190" y="580" as="targetPoint" />
            <Array as="points" />
          </mxGeometry>
        </mxCell>
        <mxCell id="BMXMZfDa0N_tZ35hjSIX-3" value="" style="edgeStyle=none;orthogonalLoop=1;jettySize=auto;html=1;rounded=0;entryX=1;entryY=0.5;entryDx=0;entryDy=0;exitX=0.25;exitY=1;exitDx=0;exitDy=0;strokeColor=#FF33FF;strokeWidth=2;" parent="1" source="7kykOVdzn0JzqWnfIJqe-107" target="iITyiV8JnJJ13BIh8I1--3" edge="1">
          <mxGeometry width="80" relative="1" as="geometry">
            <mxPoint x="1110" y="580" as="sourcePoint" />
            <mxPoint x="1190" y="580" as="targetPoint" />
            <Array as="points" />
          </mxGeometry>
        </mxCell>
        <mxCell id="BMXMZfDa0N_tZ35hjSIX-5" value="&lt;div&gt;&lt;span style=&quot;font-size: 18px; background-color: transparent; color: light-dark(rgb(0, 0, 0), rgb(255, 255, 255));&quot;&gt;文旅云生产环境&lt;/span&gt;&lt;/div&gt;" style="rounded=0;whiteSpace=wrap;html=1;verticalAlign=top;align=center;fontStyle=1;dashed=1;strokeWidth=2;fillColor=#CCE5FF;" parent="1" vertex="1">
          <mxGeometry x="-2270" y="610" width="2040" height="630" as="geometry" />
        </mxCell>
        <mxCell id="BMXMZfDa0N_tZ35hjSIX-8" value="&lt;font style=&quot;font-size: 15px;&quot;&gt;&lt;b&gt;业务服务&lt;/b&gt;&lt;/font&gt;" style="rounded=0;whiteSpace=wrap;html=1;verticalAlign=top;" parent="1" vertex="1">
          <mxGeometry x="-1540" y="665" width="1290" height="355" as="geometry" />
        </mxCell>
        <mxCell id="BMXMZfDa0N_tZ35hjSIX-9" value="&lt;span style=&quot;color: rgb(50, 50, 50); font-family: &amp;quot;Microsoft YaHei&amp;quot;, 微软雅黑, Arial; font-size: 13px; background-color: rgba(255, 255, 255, 0.01);&quot;&gt;文旅云前端(后台管理、H5、马兰湾)&lt;/span&gt;&lt;br style=&quot;color: rgb(50, 50, 50); font-family: &amp;quot;Microsoft YaHei&amp;quot;, 微软雅黑, Arial; font-size: 13px;&quot;&gt;&lt;span style=&quot;color: rgb(50, 50, 50); font-family: &amp;quot;Microsoft YaHei&amp;quot;, 微软雅黑, Arial; font-size: 13px; background-color: rgba(255, 255, 255, 0.01);&quot;&gt;wenlv-platform-frontend |&amp;nbsp;wenlv-platform-app |&amp;nbsp;wenlv-platform-verification-app&lt;/span&gt;&lt;br style=&quot;color: rgb(50, 50, 50); font-family: &amp;quot;Microsoft YaHei&amp;quot;, 微软雅黑, Arial; font-size: 13px;&quot;&gt;&lt;span style=&quot;color: rgb(50, 50, 50); font-family: &amp;quot;Microsoft YaHei&amp;quot;, 微软雅黑, Arial; font-size: 13px; background-color: rgba(255, 255, 255, 0.01);&quot;&gt;10.25.1.137&lt;/span&gt;&lt;br style=&quot;color: rgb(50, 50, 50); font-family: &amp;quot;Microsoft YaHei&amp;quot;, 微软雅黑, Arial; font-size: 13px;&quot;&gt;&lt;span style=&quot;color: rgb(50, 50, 50); font-family: &amp;quot;Microsoft YaHei&amp;quot;, 微软雅黑, Arial; font-size: 13px; background-color: rgba(255, 255, 255, 0.01);&quot;&gt;2C/4G&lt;/span&gt;" style="rounded=0;whiteSpace=wrap;html=1;" parent="1" vertex="1">
          <mxGeometry x="-1473.5" y="710" width="505" height="70" as="geometry" />
        </mxCell>
        <mxCell id="BMXMZfDa0N_tZ35hjSIX-10" value="&lt;span style=&quot;color: rgb(50, 50, 50); font-family: &amp;quot;Microsoft YaHei&amp;quot;, 微软雅黑, Arial; font-size: 13px; background-color: rgba(255, 255, 255, 0.01);&quot;&gt;文旅云前端(后台管理、H5、马兰湾)&lt;/span&gt;&lt;br style=&quot;color: rgb(50, 50, 50); font-family: &amp;quot;Microsoft YaHei&amp;quot;, 微软雅黑, Arial; font-size: 13px;&quot;&gt;&lt;span style=&quot;color: rgb(50, 50, 50); font-family: &amp;quot;Microsoft YaHei&amp;quot;, 微软雅黑, Arial; font-size: 13px; background-color: rgba(255, 255, 255, 0.01);&quot;&gt;wenlv-platform-frontend |&amp;nbsp;wenlv-platform-app |&amp;nbsp;wenlv-platform-verification-app&lt;/span&gt;&lt;br style=&quot;color: rgb(50, 50, 50); font-family: &amp;quot;Microsoft YaHei&amp;quot;, 微软雅黑, Arial; font-size: 13px;&quot;&gt;&lt;span style=&quot;color: rgb(50, 50, 50); font-family: &amp;quot;Microsoft YaHei&amp;quot;, 微软雅黑, Arial; font-size: 13px; background-color: rgba(255, 255, 255, 0.01);&quot;&gt;10.25.1.147&lt;/span&gt;&lt;br style=&quot;color: rgb(50, 50, 50); font-family: &amp;quot;Microsoft YaHei&amp;quot;, 微软雅黑, Arial; font-size: 13px;&quot;&gt;&lt;span style=&quot;color: rgb(50, 50, 50); font-family: &amp;quot;Microsoft YaHei&amp;quot;, 微软雅黑, Arial; font-size: 13px; background-color: rgba(255, 255, 255, 0.01);&quot;&gt;2C/4G&lt;/span&gt;" style="whiteSpace=wrap;html=1;rounded=0;" parent="1" vertex="1">
          <mxGeometry x="-827.5" y="710" width="505" height="70" as="geometry" />
        </mxCell>
        <mxCell id="BMXMZfDa0N_tZ35hjSIX-11" value="&lt;div style=&quot;resize: none; outline: none; font-size: 13px; color: rgb(50, 50, 50); font-family: &amp;quot;Microsoft YaHei&amp;quot;, 微软雅黑, Arial;&quot;&gt;商品服务&lt;/div&gt;&lt;span style=&quot;color: rgb(50, 50, 50); font-family: &amp;quot;Microsoft YaHei&amp;quot;, 微软雅黑, Arial; font-size: 13px; background-color: rgba(255, 255, 255, 0.01);&quot;&gt;wenlv-supplier&lt;/span&gt;&lt;br style=&quot;color: rgb(50, 50, 50); font-family: &amp;quot;Microsoft YaHei&amp;quot;, 微软雅黑, Arial; font-size: 13px;&quot;&gt;&lt;span style=&quot;color: rgb(50, 50, 50); font-family: &amp;quot;Microsoft YaHei&amp;quot;, 微软雅黑, Arial; font-size: 13px; background-color: rgba(255, 255, 255, 0.01);&quot;&gt;10.25.1.193&lt;/span&gt;&lt;br style=&quot;color: rgb(50, 50, 50); font-family: &amp;quot;Microsoft YaHei&amp;quot;, 微软雅黑, Arial; font-size: 13px;&quot;&gt;&lt;span style=&quot;color: rgb(50, 50, 50); font-family: &amp;quot;Microsoft YaHei&amp;quot;, 微软雅黑, Arial; font-size: 13px; background-color: rgba(255, 255, 255, 0.01);&quot;&gt;2C/4G&lt;/span&gt;" style="rounded=0;whiteSpace=wrap;html=1;" parent="1" vertex="1">
          <mxGeometry x="-1520" y="820" width="168" height="70" as="geometry" />
        </mxCell>
        <mxCell id="BMXMZfDa0N_tZ35hjSIX-12" value="&lt;span style=&quot;color: rgb(50, 50, 50); font-family: &amp;quot;Microsoft YaHei&amp;quot;, 微软雅黑, Arial; font-size: 13px; background-color: rgba(255, 255, 255, 0.01);&quot;&gt;&amp;nbsp;综合服务&lt;/span&gt;&lt;div style=&quot;resize: none; outline: none; font-size: 13px; color: rgb(50, 50, 50); font-family: &amp;quot;Microsoft YaHei&amp;quot;, 微软雅黑, Arial;&quot;&gt;wenlv-integrated-services&lt;br&gt;10.25.1.72&lt;br&gt;2C/4G&lt;/div&gt;" style="whiteSpace=wrap;html=1;rounded=0;" parent="1" vertex="1">
          <mxGeometry x="-1305" y="820" width="168" height="70" as="geometry" />
        </mxCell>
        <mxCell id="BMXMZfDa0N_tZ35hjSIX-13" value="&lt;span style=&quot;color: rgb(50, 50, 50); font-family: &amp;quot;Microsoft YaHei&amp;quot;, 微软雅黑, Arial; font-size: 13px; background-color: rgba(255, 255, 255, 0.01);&quot;&gt;&amp;nbsp;游客服务&lt;/span&gt;&lt;div style=&quot;resize: none; outline: none; font-size: 13px; color: rgb(50, 50, 50); font-family: &amp;quot;Microsoft YaHei&amp;quot;, 微软雅黑, Arial;&quot;&gt;wenlv-tourist&lt;br&gt;10.25.1.165&lt;br&gt;2C/4G&lt;/div&gt;" style="rounded=0;whiteSpace=wrap;html=1;" parent="1" vertex="1">
          <mxGeometry x="-1090" y="820" width="168" height="70" as="geometry" />
        </mxCell>
        <mxCell id="BMXMZfDa0N_tZ35hjSIX-14" value="&lt;span style=&quot;color: rgb(50, 50, 50); font-family: &amp;quot;Microsoft YaHei&amp;quot;, 微软雅黑, Arial; font-size: 13px; background-color: rgba(255, 255, 255, 0.01);&quot;&gt;订单服务&lt;/span&gt;&lt;div style=&quot;resize: none; outline: none; font-size: 13px; color: rgb(50, 50, 50); font-family: &amp;quot;Microsoft YaHei&amp;quot;, 微软雅黑, Arial;&quot;&gt;wenlv-order&lt;br&gt;10.25.1.164&lt;br&gt;2C/4G&lt;/div&gt;" style="whiteSpace=wrap;html=1;rounded=0;" parent="1" vertex="1">
          <mxGeometry x="-874" y="820" width="168" height="70" as="geometry" />
        </mxCell>
        <mxCell id="BMXMZfDa0N_tZ35hjSIX-15" value="&lt;span style=&quot;color: rgb(50, 50, 50); font-family: &amp;quot;Microsoft YaHei&amp;quot;, 微软雅黑, Arial; font-size: 13px; background-color: rgba(255, 255, 255, 0.01);&quot;&gt;核销服务&lt;/span&gt;&lt;br style=&quot;color: rgb(50, 50, 50); font-family: &amp;quot;Microsoft YaHei&amp;quot;, 微软雅黑, Arial; font-size: 13px;&quot;&gt;&lt;span style=&quot;color: rgb(50, 50, 50); font-family: &amp;quot;Microsoft YaHei&amp;quot;, 微软雅黑, Arial; font-size: 13px; background-color: rgba(255, 255, 255, 0.01);&quot;&gt;wenlv-verification&lt;/span&gt;&lt;br style=&quot;color: rgb(50, 50, 50); font-family: &amp;quot;Microsoft YaHei&amp;quot;, 微软雅黑, Arial; font-size: 13px;&quot;&gt;&lt;span style=&quot;color: rgb(50, 50, 50); font-family: &amp;quot;Microsoft YaHei&amp;quot;, 微软雅黑, Arial; font-size: 13px;&quot;&gt;10.25.1.177&lt;/span&gt;&lt;br style=&quot;color: rgb(50, 50, 50); font-family: &amp;quot;Microsoft YaHei&amp;quot;, 微软雅黑, Arial; font-size: 13px;&quot;&gt;&lt;span style=&quot;color: rgb(50, 50, 50); font-family: &amp;quot;Microsoft YaHei&amp;quot;, 微软雅黑, Arial; font-size: 13px; background-color: rgba(255, 255, 255, 0.01);&quot;&gt;2C/4G&lt;/span&gt;" style="whiteSpace=wrap;html=1;rounded=0;" parent="1" vertex="1">
          <mxGeometry x="-659" y="820" width="168" height="70" as="geometry" />
        </mxCell>
        <mxCell id="BMXMZfDa0N_tZ35hjSIX-16" value="&lt;span style=&quot;color: rgb(50, 50, 50); font-family: &amp;quot;Microsoft YaHei&amp;quot;, 微软雅黑, Arial; font-size: 13px; background-color: rgba(255, 255, 255, 0.01);&quot;&gt;&amp;nbsp;分销商服务&lt;/span&gt;&lt;div style=&quot;resize: none; outline: none; font-size: 13px; color: rgb(50, 50, 50); font-family: &amp;quot;Microsoft YaHei&amp;quot;, 微软雅黑, Arial;&quot;&gt;wenlv-distributor&lt;br&gt;10.25.1.70&lt;br&gt;2C/4G&lt;/div&gt;" style="whiteSpace=wrap;html=1;rounded=0;" parent="1" vertex="1">
          <mxGeometry x="-444" y="820" width="168" height="70" as="geometry" />
        </mxCell>
        <mxCell id="BMXMZfDa0N_tZ35hjSIX-17" value="&lt;div style=&quot;resize: none; outline: none; font-size: 13px; color: rgb(50, 50, 50); font-family: &amp;quot;Microsoft YaHei&amp;quot;, 微软雅黑, Arial;&quot;&gt;&lt;span style=&quot;background-color: rgba(255, 255, 255, 0.01);&quot;&gt;&amp;nbsp;用户数据服务&lt;/span&gt;&lt;div style=&quot;resize: none; outline: none;&quot;&gt;wenlv-customer-data&lt;br&gt;10.25.1.196&lt;br&gt;2C/4G&lt;/div&gt;&lt;/div&gt;" style="rounded=0;whiteSpace=wrap;html=1;" parent="1" vertex="1">
          <mxGeometry x="-1520" y="930" width="168" height="70" as="geometry" />
        </mxCell>
        <mxCell id="BMXMZfDa0N_tZ35hjSIX-18" value="&lt;span style=&quot;color: rgb(50, 50, 50); font-family: &amp;quot;Microsoft YaHei&amp;quot;, 微软雅黑, Arial; font-size: 13px; background-color: rgba(255, 255, 255, 0.01);&quot;&gt;报表服务&lt;/span&gt;&lt;br style=&quot;color: rgb(50, 50, 50); font-family: &amp;quot;Microsoft YaHei&amp;quot;, 微软雅黑, Arial; font-size: 13px;&quot;&gt;&lt;span style=&quot;color: rgb(50, 50, 50); font-family: &amp;quot;Microsoft YaHei&amp;quot;, 微软雅黑, Arial; font-size: 13px; background-color: rgba(255, 255, 255, 0.01);&quot;&gt;wenlv-report&lt;/span&gt;&lt;br style=&quot;color: rgb(50, 50, 50); font-family: &amp;quot;Microsoft YaHei&amp;quot;, 微软雅黑, Arial; font-size: 13px;&quot;&gt;&lt;span style=&quot;color: rgb(50, 50, 50); font-family: &amp;quot;Microsoft YaHei&amp;quot;, 微软雅黑, Arial; font-size: 13px; background-color: rgba(255, 255, 255, 0.01);&quot;&gt;10.25.1.135&lt;/span&gt;&lt;br style=&quot;color: rgb(50, 50, 50); font-family: &amp;quot;Microsoft YaHei&amp;quot;, 微软雅黑, Arial; font-size: 13px;&quot;&gt;&lt;span style=&quot;color: rgb(50, 50, 50); font-family: &amp;quot;Microsoft YaHei&amp;quot;, 微软雅黑, Arial; font-size: 13px; background-color: rgba(255, 255, 255, 0.01);&quot;&gt;2C/4G&lt;/span&gt;" style="whiteSpace=wrap;html=1;rounded=0;" parent="1" vertex="1">
          <mxGeometry x="-1305" y="930" width="168" height="70" as="geometry" />
        </mxCell>
        <mxCell id="BMXMZfDa0N_tZ35hjSIX-19" value="&lt;span style=&quot;color: rgb(50, 50, 50); font-family: &amp;quot;Microsoft YaHei&amp;quot;, 微软雅黑, Arial; font-size: 13px; background-color: rgba(255, 255, 255, 0.01);&quot;&gt;&amp;nbsp;携程分销商品&lt;/span&gt;&lt;div style=&quot;resize: none; outline: none; font-size: 13px; color: rgb(50, 50, 50); font-family: &amp;quot;Microsoft YaHei&amp;quot;, 微软雅黑, Arial;&quot;&gt;wenlv-supplier-channel-goods&lt;br&gt;10.25.1.194&lt;br&gt;2C/4G&lt;/div&gt;" style="rounded=0;whiteSpace=wrap;html=1;" parent="1" vertex="1">
          <mxGeometry x="-1104" y="930" width="196" height="70" as="geometry" />
        </mxCell>
        <mxCell id="BMXMZfDa0N_tZ35hjSIX-20" value="&lt;span style=&quot;color: rgb(50, 50, 50); font-family: &amp;quot;Microsoft YaHei&amp;quot;, 微软雅黑, Arial; font-size: 13px; background-color: rgba(255, 255, 255, 0.01);&quot;&gt;&amp;nbsp;携程分销订单&lt;/span&gt;&lt;div style=&quot;resize: none; outline: none; font-size: 13px; color: rgb(50, 50, 50); font-family: &amp;quot;Microsoft YaHei&amp;quot;, 微软雅黑, Arial;&quot;&gt;wenlv-supplier-channel-order&lt;br&gt;10.25.1.192&lt;br&gt;2C/4G&lt;/div&gt;" style="whiteSpace=wrap;html=1;rounded=0;" parent="1" vertex="1">
          <mxGeometry x="-888" y="930" width="196" height="70" as="geometry" />
        </mxCell>
        <mxCell id="BMXMZfDa0N_tZ35hjSIX-21" value="&lt;span style=&quot;color: rgb(50, 50, 50); font-family: &amp;quot;Microsoft YaHei&amp;quot;, 微软雅黑, Arial; font-size: 13px; background-color: rgba(255, 255, 255, 0.01);&quot;&gt;发票服务&lt;/span&gt;&lt;br style=&quot;color: rgb(50, 50, 50); font-family: &amp;quot;Microsoft YaHei&amp;quot;, 微软雅黑, Arial; font-size: 13px;&quot;&gt;&lt;span style=&quot;color: rgb(50, 50, 50); font-family: &amp;quot;Microsoft YaHei&amp;quot;, 微软雅黑, Arial; font-size: 13px; background-color: rgba(255, 255, 255, 0.01);&quot;&gt;jm-invoice&lt;/span&gt;&lt;br style=&quot;color: rgb(50, 50, 50); font-family: &amp;quot;Microsoft YaHei&amp;quot;, 微软雅黑, Arial; font-size: 13px;&quot;&gt;&lt;span style=&quot;color: rgb(50, 50, 50); font-family: &amp;quot;Microsoft YaHei&amp;quot;, 微软雅黑, Arial; font-size: 13px; background-color: rgba(255, 255, 255, 0.01);&quot;&gt;10.25.1.139&lt;/span&gt;&lt;br style=&quot;color: rgb(50, 50, 50); font-family: &amp;quot;Microsoft YaHei&amp;quot;, 微软雅黑, Arial; font-size: 13px;&quot;&gt;&lt;span style=&quot;color: rgb(50, 50, 50); font-family: &amp;quot;Microsoft YaHei&amp;quot;, 微软雅黑, Arial; font-size: 13px; background-color: rgba(255, 255, 255, 0.01);&quot;&gt;2C/4G&lt;/span&gt;" style="whiteSpace=wrap;html=1;rounded=0;" parent="1" vertex="1">
          <mxGeometry x="-659" y="930" width="168" height="70" as="geometry" />
        </mxCell>
        <mxCell id="BMXMZfDa0N_tZ35hjSIX-22" value="&lt;span style=&quot;color: rgb(50, 50, 50); font-family: &amp;quot;Microsoft YaHei&amp;quot;, 微软雅黑, Arial; font-size: 13px; background-color: rgba(255, 255, 255, 0.01);&quot;&gt;支付服务&lt;/span&gt;&lt;br style=&quot;color: rgb(50, 50, 50); font-family: &amp;quot;Microsoft YaHei&amp;quot;, 微软雅黑, Arial; font-size: 13px;&quot;&gt;&lt;span style=&quot;color: rgb(50, 50, 50); font-family: &amp;quot;Microsoft YaHei&amp;quot;, 微软雅黑, Arial; font-size: 13px; background-color: rgba(255, 255, 255, 0.01);&quot;&gt;jm-unipay-01&lt;/span&gt;&lt;br style=&quot;color: rgb(50, 50, 50); font-family: &amp;quot;Microsoft YaHei&amp;quot;, 微软雅黑, Arial; font-size: 13px;&quot;&gt;&lt;span style=&quot;color: rgb(50, 50, 50); font-family: &amp;quot;Microsoft YaHei&amp;quot;, 微软雅黑, Arial; font-size: 13px; background-color: rgba(255, 255, 255, 0.01);&quot;&gt;10.25.1.132&lt;/span&gt;&lt;br style=&quot;color: rgb(50, 50, 50); font-family: &amp;quot;Microsoft YaHei&amp;quot;, 微软雅黑, Arial; font-size: 13px;&quot;&gt;&lt;span style=&quot;color: rgb(50, 50, 50); font-family: &amp;quot;Microsoft YaHei&amp;quot;, 微软雅黑, Arial; font-size: 13px; background-color: rgba(255, 255, 255, 0.01);&quot;&gt;2C/4G&lt;/span&gt;" style="whiteSpace=wrap;html=1;rounded=0;" parent="1" vertex="1">
          <mxGeometry x="-444" y="930" width="168" height="70" as="geometry" />
        </mxCell>
        <mxCell id="BMXMZfDa0N_tZ35hjSIX-47" value="" style="group" parent="1" vertex="1" connectable="0">
          <mxGeometry x="-2250" y="665" width="680" height="355" as="geometry" />
        </mxCell>
        <mxCell id="BMXMZfDa0N_tZ35hjSIX-23" value="&lt;font style=&quot;font-size: 15px;&quot;&gt;&lt;b&gt;基础服务&lt;/b&gt;&lt;/font&gt;" style="rounded=0;whiteSpace=wrap;html=1;verticalAlign=top;" parent="BMXMZfDa0N_tZ35hjSIX-47" vertex="1">
          <mxGeometry width="680" height="355" as="geometry" />
        </mxCell>
        <mxCell id="BMXMZfDa0N_tZ35hjSIX-38" value="&lt;span style=&quot;color: rgb(50, 50, 50); font-family: &amp;quot;Microsoft YaHei&amp;quot;, 微软雅黑, Arial; font-size: 13px; background-color: rgba(255, 255, 255, 0.01);&quot;&gt;基础服务后台管理服务&lt;/span&gt;&lt;br style=&quot;color: rgb(50, 50, 50); font-family: &amp;quot;Microsoft YaHei&amp;quot;, 微软雅黑, Arial; font-size: 13px;&quot;&gt;&lt;span style=&quot;color: rgb(50, 50, 50); font-family: &amp;quot;Microsoft YaHei&amp;quot;, 微软雅黑, Arial; font-size: 13px; background-color: rgba(255, 255, 255, 0.01);&quot;&gt;blade-admin&lt;/span&gt;&lt;br style=&quot;color: rgb(50, 50, 50); font-family: &amp;quot;Microsoft YaHei&amp;quot;, 微软雅黑, Arial; font-size: 13px;&quot;&gt;&lt;span style=&quot;color: rgb(50, 50, 50); font-family: &amp;quot;Microsoft YaHei&amp;quot;, 微软雅黑, Arial; font-size: 13px; background-color: rgba(255, 255, 255, 0.01);&quot;&gt;10.25.1.28&lt;/span&gt;&lt;br style=&quot;color: rgb(50, 50, 50); font-family: &amp;quot;Microsoft YaHei&amp;quot;, 微软雅黑, Arial; font-size: 13px;&quot;&gt;&lt;span style=&quot;color: rgb(50, 50, 50); font-family: &amp;quot;Microsoft YaHei&amp;quot;, 微软雅黑, Arial; font-size: 13px; background-color: rgba(255, 255, 255, 0.01);&quot;&gt;2C/4G&lt;/span&gt;" style="rounded=0;whiteSpace=wrap;html=1;" parent="BMXMZfDa0N_tZ35hjSIX-47" vertex="1">
          <mxGeometry x="40" y="45.64285714285714" width="168" height="71" as="geometry" />
        </mxCell>
        <mxCell id="BMXMZfDa0N_tZ35hjSIX-39" value="&lt;div style=&quot;resize: none; outline: none; font-size: 13px; color: rgb(50, 50, 50); font-family: &amp;quot;Microsoft YaHei&amp;quot;, 微软雅黑, Arial;&quot;&gt;&lt;span style=&quot;background-color: rgba(255, 255, 255, 0.01);&quot;&gt;基础服务日志服务&lt;/span&gt;&lt;br&gt;&lt;span style=&quot;background-color: rgba(255, 255, 255, 0.01);&quot;&gt;blade-log&lt;/span&gt;&lt;br&gt;&lt;span style=&quot;background-color: rgba(255, 255, 255, 0.01);&quot;&gt;10.25.1.150&lt;/span&gt;&lt;br&gt;&lt;span style=&quot;background-color: rgba(255, 255, 255, 0.01);&quot;&gt;2C/4G&lt;/span&gt;&lt;/div&gt;" style="rounded=0;whiteSpace=wrap;html=1;" parent="BMXMZfDa0N_tZ35hjSIX-47" vertex="1">
          <mxGeometry x="40" y="157.2142857142857" width="168" height="71" as="geometry" />
        </mxCell>
        <mxCell id="BMXMZfDa0N_tZ35hjSIX-40" value="&lt;span style=&quot;color: rgb(50, 50, 50); font-family: &amp;quot;Microsoft YaHei&amp;quot;, 微软雅黑, Arial; font-size: 13px; background-color: rgba(255, 255, 255, 0.01);&quot;&gt;基础服务报表服务&lt;/span&gt;&lt;br style=&quot;color: rgb(50, 50, 50); font-family: &amp;quot;Microsoft YaHei&amp;quot;, 微软雅黑, Arial; font-size: 13px;&quot;&gt;&lt;span style=&quot;color: rgb(50, 50, 50); font-family: &amp;quot;Microsoft YaHei&amp;quot;, 微软雅黑, Arial; font-size: 13px; background-color: rgba(255, 255, 255, 0.01);&quot;&gt;blade-report&lt;/span&gt;&lt;br style=&quot;color: rgb(50, 50, 50); font-family: &amp;quot;Microsoft YaHei&amp;quot;, 微软雅黑, Arial; font-size: 13px;&quot;&gt;&lt;span style=&quot;color: rgb(50, 50, 50); font-family: &amp;quot;Microsoft YaHei&amp;quot;, 微软雅黑, Arial; font-size: 13px; background-color: rgba(255, 255, 255, 0.01);&quot;&gt;10.25.1.146&lt;/span&gt;&lt;br style=&quot;color: rgb(50, 50, 50); font-family: &amp;quot;Microsoft YaHei&amp;quot;, 微软雅黑, Arial; font-size: 13px;&quot;&gt;&lt;span style=&quot;color: rgb(50, 50, 50); font-family: &amp;quot;Microsoft YaHei&amp;quot;, 微软雅黑, Arial; font-size: 13px; background-color: rgba(255, 255, 255, 0.01);&quot;&gt;2C/4G&lt;/span&gt;" style="whiteSpace=wrap;html=1;rounded=0;" parent="BMXMZfDa0N_tZ35hjSIX-47" vertex="1">
          <mxGeometry x="255" y="157.2142857142857" width="168" height="71" as="geometry" />
        </mxCell>
        <mxCell id="BMXMZfDa0N_tZ35hjSIX-41" value="&lt;span style=&quot;color: rgb(50, 50, 50); font-family: &amp;quot;Microsoft YaHei&amp;quot;, 微软雅黑, Arial; font-size: 13px; background-color: rgba(255, 255, 255, 0.01);&quot;&gt;基础服务资源服务&lt;/span&gt;&lt;br style=&quot;color: rgb(50, 50, 50); font-family: &amp;quot;Microsoft YaHei&amp;quot;, 微软雅黑, Arial; font-size: 13px;&quot;&gt;&lt;span style=&quot;color: rgb(50, 50, 50); font-family: &amp;quot;Microsoft YaHei&amp;quot;, 微软雅黑, Arial; font-size: 13px; background-color: rgba(255, 255, 255, 0.01);&quot;&gt;blade-resource&lt;/span&gt;&lt;br style=&quot;color: rgb(50, 50, 50); font-family: &amp;quot;Microsoft YaHei&amp;quot;, 微软雅黑, Arial; font-size: 13px;&quot;&gt;&lt;span style=&quot;color: rgb(50, 50, 50); font-family: &amp;quot;Microsoft YaHei&amp;quot;, 微软雅黑, Arial; font-size: 13px; background-color: rgba(255, 255, 255, 0.01);&quot;&gt;10.25.1.151&lt;/span&gt;&lt;br style=&quot;color: rgb(50, 50, 50); font-family: &amp;quot;Microsoft YaHei&amp;quot;, 微软雅黑, Arial; font-size: 13px;&quot;&gt;&lt;span style=&quot;color: rgb(50, 50, 50); font-family: &amp;quot;Microsoft YaHei&amp;quot;, 微软雅黑, Arial; font-size: 13px; background-color: rgba(255, 255, 255, 0.01);&quot;&gt;2C/4G&lt;/span&gt;" style="rounded=0;whiteSpace=wrap;html=1;" parent="BMXMZfDa0N_tZ35hjSIX-47" vertex="1">
          <mxGeometry x="470" y="157.2142857142857" width="168" height="71" as="geometry" />
        </mxCell>
        <mxCell id="BMXMZfDa0N_tZ35hjSIX-42" value="&lt;span style=&quot;color: rgb(50, 50, 50); font-family: &amp;quot;Microsoft YaHei&amp;quot;, 微软雅黑, Arial; font-size: 13px; background-color: rgba(255, 255, 255, 0.01);&quot;&gt;&amp;nbsp;基础服务网关服务&lt;/span&gt;&lt;div style=&quot;resize: none; outline: none; font-size: 13px; color: rgb(50, 50, 50); font-family: &amp;quot;Microsoft YaHei&amp;quot;, 微软雅黑, Arial;&quot;&gt;wenlv-gateway&lt;br&gt;10.25.1.163&lt;br&gt;2C/4G&lt;/div&gt;" style="rounded=0;whiteSpace=wrap;html=1;" parent="BMXMZfDa0N_tZ35hjSIX-47" vertex="1">
          <mxGeometry x="470" y="268.7857142857143" width="168" height="71" as="geometry" />
        </mxCell>
        <mxCell id="BMXMZfDa0N_tZ35hjSIX-43" value="&lt;span style=&quot;color: rgb(50, 50, 50); font-family: &amp;quot;Microsoft YaHei&amp;quot;, 微软雅黑, Arial; font-size: 13px; background-color: rgba(255, 255, 255, 0.01);&quot;&gt;基础服务任务调度服务&lt;/span&gt;&lt;br style=&quot;color: rgb(50, 50, 50); font-family: &amp;quot;Microsoft YaHei&amp;quot;, 微软雅黑, Arial; font-size: 13px;&quot;&gt;&lt;span style=&quot;color: rgb(50, 50, 50); font-family: &amp;quot;Microsoft YaHei&amp;quot;, 微软雅黑, Arial; font-size: 13px; background-color: rgba(255, 255, 255, 0.01);&quot;&gt;blade-xxljob-admin&lt;/span&gt;&lt;br style=&quot;color: rgb(50, 50, 50); font-family: &amp;quot;Microsoft YaHei&amp;quot;, 微软雅黑, Arial; font-size: 13px;&quot;&gt;&lt;span style=&quot;color: rgb(50, 50, 50); font-family: &amp;quot;Microsoft YaHei&amp;quot;, 微软雅黑, Arial; font-size: 13px; background-color: rgba(255, 255, 255, 0.01);&quot;&gt;10.25.1.152&lt;/span&gt;&lt;br style=&quot;color: rgb(50, 50, 50); font-family: &amp;quot;Microsoft YaHei&amp;quot;, 微软雅黑, Arial; font-size: 13px;&quot;&gt;&lt;span style=&quot;color: rgb(50, 50, 50); font-family: &amp;quot;Microsoft YaHei&amp;quot;, 微软雅黑, Arial; font-size: 13px; background-color: rgba(255, 255, 255, 0.01);&quot;&gt;2C/4G&lt;/span&gt;" style="whiteSpace=wrap;html=1;rounded=0;" parent="BMXMZfDa0N_tZ35hjSIX-47" vertex="1">
          <mxGeometry x="255" y="268.7857142857143" width="168" height="71" as="geometry" />
        </mxCell>
        <mxCell id="BMXMZfDa0N_tZ35hjSIX-44" value="&lt;div style=&quot;resize: none; outline: none; font-size: 13px; color: rgb(50, 50, 50); font-family: &amp;quot;Microsoft YaHei&amp;quot;, 微软雅黑, Arial;&quot;&gt;&lt;span style=&quot;background-color: rgba(255, 255, 255, 0.01);&quot;&gt;基础服务系统服务&lt;/span&gt;&lt;br&gt;&lt;span style=&quot;background-color: rgba(255, 255, 255, 0.01);&quot;&gt;blade-system&lt;/span&gt;&lt;br&gt;&lt;span style=&quot;background-color: rgba(255, 255, 255, 0.01);&quot;&gt;10.25.1.128&lt;/span&gt;&lt;br&gt;&lt;span style=&quot;background-color: rgba(255, 255, 255, 0.01);&quot;&gt;2C/4G&lt;/span&gt;&lt;/div&gt;" style="rounded=0;whiteSpace=wrap;html=1;" parent="BMXMZfDa0N_tZ35hjSIX-47" vertex="1">
          <mxGeometry x="40" y="268.7857142857143" width="168" height="71" as="geometry" />
        </mxCell>
        <mxCell id="BMXMZfDa0N_tZ35hjSIX-45" value="&lt;span style=&quot;color: rgb(50, 50, 50); font-family: &amp;quot;Microsoft YaHei&amp;quot;, 微软雅黑, Arial; font-size: 13px; background-color: rgba(255, 255, 255, 0.01);&quot;&gt;基础服务授权服务&lt;/span&gt;&lt;br style=&quot;color: rgb(50, 50, 50); font-family: &amp;quot;Microsoft YaHei&amp;quot;, 微软雅黑, Arial; font-size: 13px;&quot;&gt;&lt;span style=&quot;color: rgb(50, 50, 50); font-family: &amp;quot;Microsoft YaHei&amp;quot;, 微软雅黑, Arial; font-size: 13px; background-color: rgba(255, 255, 255, 0.01);&quot;&gt;blade-auth&lt;/span&gt;&lt;br style=&quot;color: rgb(50, 50, 50); font-family: &amp;quot;Microsoft YaHei&amp;quot;, 微软雅黑, Arial; font-size: 13px;&quot;&gt;&lt;span style=&quot;color: rgb(50, 50, 50); font-family: &amp;quot;Microsoft YaHei&amp;quot;, 微软雅黑, Arial; font-size: 13px; background-color: rgba(255, 255, 255, 0.01);&quot;&gt;10.25.1.37&lt;/span&gt;&lt;br style=&quot;color: rgb(50, 50, 50); font-family: &amp;quot;Microsoft YaHei&amp;quot;, 微软雅黑, Arial; font-size: 13px;&quot;&gt;&lt;span style=&quot;color: rgb(50, 50, 50); font-family: &amp;quot;Microsoft YaHei&amp;quot;, 微软雅黑, Arial; font-size: 13px; background-color: rgba(255, 255, 255, 0.01);&quot;&gt;2C/4G&lt;/span&gt;" style="rounded=0;whiteSpace=wrap;html=1;" parent="BMXMZfDa0N_tZ35hjSIX-47" vertex="1">
          <mxGeometry x="255" y="45.64285714285714" width="168" height="71" as="geometry" />
        </mxCell>
        <mxCell id="BMXMZfDa0N_tZ35hjSIX-46" value="&lt;span style=&quot;color: rgb(50, 50, 50); font-family: &amp;quot;Microsoft YaHei&amp;quot;, 微软雅黑, Arial; font-size: 13px; background-color: rgba(255, 255, 255, 0.01);&quot;&gt;基础服务工作台服务&lt;/span&gt;&lt;br style=&quot;color: rgb(50, 50, 50); font-family: &amp;quot;Microsoft YaHei&amp;quot;, 微软雅黑, Arial; font-size: 13px;&quot;&gt;&lt;span style=&quot;color: rgb(50, 50, 50); font-family: &amp;quot;Microsoft YaHei&amp;quot;, 微软雅黑, Arial; font-size: 13px; background-color: rgba(255, 255, 255, 0.01);&quot;&gt;blade-desk&lt;/span&gt;&lt;br style=&quot;color: rgb(50, 50, 50); font-family: &amp;quot;Microsoft YaHei&amp;quot;, 微软雅黑, Arial; font-size: 13px;&quot;&gt;&lt;span style=&quot;color: rgb(50, 50, 50); font-family: &amp;quot;Microsoft YaHei&amp;quot;, 微软雅黑, Arial; font-size: 13px; background-color: rgba(255, 255, 255, 0.01);&quot;&gt;10.25.1.153&lt;/span&gt;&lt;br style=&quot;color: rgb(50, 50, 50); font-family: &amp;quot;Microsoft YaHei&amp;quot;, 微软雅黑, Arial; font-size: 13px;&quot;&gt;&lt;span style=&quot;color: rgb(50, 50, 50); font-family: &amp;quot;Microsoft YaHei&amp;quot;, 微软雅黑, Arial; font-size: 13px; background-color: rgba(255, 255, 255, 0.01);&quot;&gt;2C/4G&lt;/span&gt;" style="rounded=0;whiteSpace=wrap;html=1;" parent="BMXMZfDa0N_tZ35hjSIX-47" vertex="1">
          <mxGeometry x="468" y="45.64285714285714" width="168" height="71" as="geometry" />
        </mxCell>
        <mxCell id="BMXMZfDa0N_tZ35hjSIX-49" value="中间件-nacos" style="rounded=0;whiteSpace=wrap;html=1;align=right;verticalAlign=top;fillColor=#e1d5e7;strokeColor=#9673a6;" parent="1" vertex="1">
          <mxGeometry x="-1540" y="1054.6200000000001" width="550" height="175.38" as="geometry" />
        </mxCell>
        <mxCell id="BMXMZfDa0N_tZ35hjSIX-59" value="中间件-rocketmq" style="rounded=0;whiteSpace=wrap;html=1;align=right;verticalAlign=top;fillColor=#e1d5e7;strokeColor=#9673a6;" parent="1" vertex="1">
          <mxGeometry x="-850" y="1059.6200000000001" width="550" height="175.38" as="geometry" />
        </mxCell>
        <mxCell id="BMXMZfDa0N_tZ35hjSIX-50" value="&lt;span style=&quot;color: rgb(50, 50, 50); font-family: &amp;quot;Microsoft YaHei&amp;quot;, 微软雅黑, Arial; font-size: 13px; background-color: rgba(255, 255, 255, 0.01);&quot;&gt;rocketmq01&lt;/span&gt;&lt;div style=&quot;resize: none; outline: none; font-size: 13px; color: rgb(50, 50, 50); font-family: &amp;quot;Microsoft YaHei&amp;quot;, 微软雅黑, Arial;&quot;&gt;10.25.1.174&lt;div style=&quot;resize: none; outline: none; font-size: inherit;&quot;&gt;2C/4G&lt;/div&gt;&lt;/div&gt;" style="rounded=0;whiteSpace=wrap;html=1;" parent="1" vertex="1">
          <mxGeometry x="-827.5" y="1101.9836559139785" width="120" height="80.64516129032258" as="geometry" />
        </mxCell>
        <mxCell id="BMXMZfDa0N_tZ35hjSIX-51" value="&lt;span style=&quot;color: rgb(50, 50, 50); font-family: &amp;quot;Microsoft YaHei&amp;quot;, 微软雅黑, Arial; font-size: 13px; background-color: rgba(255, 255, 255, 0.01);&quot;&gt;rocketmq03&lt;/span&gt;&lt;div style=&quot;resize: none; outline: none; font-size: 13px; color: rgb(50, 50, 50); font-family: &amp;quot;Microsoft YaHei&amp;quot;, 微软雅黑, Arial;&quot;&gt;10.25.1.176&lt;div style=&quot;resize: none; outline: none; font-size: inherit;&quot;&gt;2C/4G&lt;/div&gt;&lt;/div&gt;" style="rounded=0;whiteSpace=wrap;html=1;" parent="1" vertex="1">
          <mxGeometry x="-444" y="1099.3536559139786" width="120" height="80.64516129032258" as="geometry" />
        </mxCell>
        <mxCell id="BMXMZfDa0N_tZ35hjSIX-52" value="&lt;span style=&quot;color: rgb(50, 50, 50); font-family: &amp;quot;Microsoft YaHei&amp;quot;, 微软雅黑, Arial; font-size: 13px; background-color: rgba(255, 255, 255, 0.01);&quot;&gt;rocketmq02&lt;/span&gt;&lt;div style=&quot;resize: none; outline: none; font-size: 13px; color: rgb(50, 50, 50); font-family: &amp;quot;Microsoft YaHei&amp;quot;, 微软雅黑, Arial;&quot;&gt;10.25.1.175&lt;div style=&quot;resize: none; outline: none; font-size: inherit;&quot;&gt;2C/4G&lt;/div&gt;&lt;/div&gt;" style="rounded=0;whiteSpace=wrap;html=1;" parent="1" vertex="1">
          <mxGeometry x="-635" y="1101" width="120" height="80.64516129032258" as="geometry" />
        </mxCell>
        <mxCell id="BMXMZfDa0N_tZ35hjSIX-53" value="&lt;span style=&quot;color: rgb(50, 50, 50); font-family: &amp;quot;Microsoft YaHei&amp;quot;, 微软雅黑, Arial; font-size: 13px; background-color: rgba(255, 255, 255, 0.01);&quot;&gt;nacos01&lt;/span&gt;&lt;div style=&quot;resize: none; outline: none; font-size: 13px; color: rgb(50, 50, 50); font-family: &amp;quot;Microsoft YaHei&amp;quot;, 微软雅黑, Arial;&quot;&gt;10.25.1.240&lt;div style=&quot;resize: none; outline: none; font-size: inherit;&quot;&gt;2C/4G&lt;/div&gt;&lt;/div&gt;" style="rounded=0;whiteSpace=wrap;html=1;" parent="1" vertex="1">
          <mxGeometry x="-1520" y="1099.3536559139784" width="120" height="80.64516129032258" as="geometry" />
        </mxCell>
        <mxCell id="BMXMZfDa0N_tZ35hjSIX-54" value="&lt;span style=&quot;color: rgb(50, 50, 50); font-family: &amp;quot;Microsoft YaHei&amp;quot;, 微软雅黑, Arial; font-size: 13px; background-color: rgba(255, 255, 255, 0.01);&quot;&gt;nacos03&lt;/span&gt;&lt;div style=&quot;resize: none; outline: none; font-size: 13px; color: rgb(50, 50, 50); font-family: &amp;quot;Microsoft YaHei&amp;quot;, 微软雅黑, Arial;&quot;&gt;10.25.1.245&lt;div style=&quot;resize: none; outline: none; font-size: inherit;&quot;&gt;2C/4G&lt;/div&gt;&lt;/div&gt;" style="rounded=0;whiteSpace=wrap;html=1;" parent="1" vertex="1">
          <mxGeometry x="-1130" y="1099.3536559139784" width="120" height="80.64516129032258" as="geometry" />
        </mxCell>
        <mxCell id="BMXMZfDa0N_tZ35hjSIX-73" value="" style="rounded=0;whiteSpace=wrap;html=1;fillColor=#d5e8d4;strokeColor=#82b366;" parent="1" vertex="1">
          <mxGeometry x="-2270" y="1262.36" width="2630" height="207.64" as="geometry" />
        </mxCell>
        <mxCell id="BMXMZfDa0N_tZ35hjSIX-55" value="&lt;span style=&quot;color: rgb(50, 50, 50); font-family: &amp;quot;Microsoft YaHei&amp;quot;, 微软雅黑, Arial; font-size: 13px; background-color: rgba(255, 255, 255, 0.01);&quot;&gt;nacos02&lt;/span&gt;&lt;div style=&quot;resize: none; outline: none; font-size: 13px; color: rgb(50, 50, 50); font-family: &amp;quot;Microsoft YaHei&amp;quot;, 微软雅黑, Arial;&quot;&gt;10.25.1.242&lt;div style=&quot;resize: none; outline: none; font-size: inherit;&quot;&gt;2C/4G&lt;/div&gt;&lt;/div&gt;" style="rounded=0;whiteSpace=wrap;html=1;" parent="1" vertex="1">
          <mxGeometry x="-1325" y="1101.9836559139785" width="120" height="80.64516129032258" as="geometry" />
        </mxCell>
        <mxCell id="BMXMZfDa0N_tZ35hjSIX-65" value="" style="group" parent="1" vertex="1" connectable="0">
          <mxGeometry x="-481" y="1284.62" width="550" height="175.37999999999988" as="geometry" />
        </mxCell>
        <mxCell id="BMXMZfDa0N_tZ35hjSIX-61" value="中间件-redis" style="rounded=0;whiteSpace=wrap;html=1;align=right;verticalAlign=top;fillColor=#e1d5e7;strokeColor=#9673a6;" parent="BMXMZfDa0N_tZ35hjSIX-65" vertex="1">
          <mxGeometry width="550" height="175.38" as="geometry" />
        </mxCell>
        <mxCell id="BMXMZfDa0N_tZ35hjSIX-62" value="&lt;span style=&quot;color: rgb(50, 50, 50); font-family: &amp;quot;Microsoft YaHei&amp;quot;, 微软雅黑, Arial; font-size: 13px; background-color: rgba(255, 255, 255, 0.01);&quot;&gt;redis-03 | sentinel&lt;/span&gt;&lt;div style=&quot;resize: none; outline: none; font-size: 13px; color: rgb(50, 50, 50); font-family: &amp;quot;Microsoft YaHei&amp;quot;, 微软雅黑, Arial;&quot;&gt;10.25.1.233&lt;div style=&quot;resize: none; outline: none; font-size: inherit;&quot;&gt;2C/4G&lt;/div&gt;&lt;/div&gt;" style="rounded=0;whiteSpace=wrap;html=1;" parent="BMXMZfDa0N_tZ35hjSIX-65" vertex="1">
          <mxGeometry x="406" y="39.73365591397851" width="120" height="80.64516129032258" as="geometry" />
        </mxCell>
        <mxCell id="BMXMZfDa0N_tZ35hjSIX-63" value="&lt;span style=&quot;color: rgb(50, 50, 50); font-family: &amp;quot;Microsoft YaHei&amp;quot;, 微软雅黑, Arial; font-size: 13px; background-color: rgba(255, 255, 255, 0.01);&quot;&gt;redis-02 | sentinel&lt;/span&gt;&lt;div style=&quot;resize: none; outline: none; font-size: 13px; color: rgb(50, 50, 50); font-family: &amp;quot;Microsoft YaHei&amp;quot;, 微软雅黑, Arial;&quot;&gt;10.25.1.232&lt;br&gt;&lt;div style=&quot;resize: none; outline: none; font-size: inherit;&quot;&gt;2C/4G&lt;/div&gt;&lt;/div&gt;" style="rounded=0;whiteSpace=wrap;html=1;" parent="BMXMZfDa0N_tZ35hjSIX-65" vertex="1">
          <mxGeometry x="215" y="41.37999999999988" width="120" height="80.64516129032258" as="geometry" />
        </mxCell>
        <mxCell id="BMXMZfDa0N_tZ35hjSIX-64" value="&lt;span style=&quot;color: rgb(50, 50, 50); font-family: &amp;quot;Microsoft YaHei&amp;quot;, 微软雅黑, Arial; font-size: 13px; background-color: rgba(255, 255, 255, 0.01);&quot;&gt;redis-01 | sentinel&lt;/span&gt;&lt;div style=&quot;resize: none; outline: none; font-size: 13px; color: rgb(50, 50, 50); font-family: &amp;quot;Microsoft YaHei&amp;quot;, 微软雅黑, Arial;&quot;&gt;10.25.1.231&lt;div style=&quot;resize: none; outline: none; font-size: inherit;&quot;&gt;2C/4G&lt;/div&gt;&lt;/div&gt;" style="rounded=0;whiteSpace=wrap;html=1;" parent="BMXMZfDa0N_tZ35hjSIX-65" vertex="1">
          <mxGeometry x="22.5" y="42.36365591397839" width="120" height="80.64516129032258" as="geometry" />
        </mxCell>
        <mxCell id="BMXMZfDa0N_tZ35hjSIX-74" value="" style="group" parent="1" vertex="1" connectable="0">
          <mxGeometry x="-1610" y="1280" width="740" height="175.3800000000001" as="geometry" />
        </mxCell>
        <mxCell id="BMXMZfDa0N_tZ35hjSIX-67" value="中间件-minio" style="rounded=0;whiteSpace=wrap;html=1;align=right;verticalAlign=top;fillColor=#e1d5e7;strokeColor=#9673a6;" parent="BMXMZfDa0N_tZ35hjSIX-74" vertex="1">
          <mxGeometry width="740" height="175.38" as="geometry" />
        </mxCell>
        <mxCell id="BMXMZfDa0N_tZ35hjSIX-68" value="&lt;span style=&quot;color: rgb(50, 50, 50); font-family: &amp;quot;Microsoft YaHei&amp;quot;, 微软雅黑, Arial; font-size: 13px; background-color: rgba(255, 255, 255, 0.01);&quot;&gt;minio04&lt;/span&gt;&lt;div style=&quot;resize: none; outline: none; font-size: 13px; color: rgb(50, 50, 50); font-family: &amp;quot;Microsoft YaHei&amp;quot;, 微软雅黑, Arial;&quot;&gt;10.25.1.104&lt;div style=&quot;resize: none; outline: none; font-size: inherit;&quot;&gt;4C/8G&lt;/div&gt;&lt;/div&gt;" style="rounded=0;whiteSpace=wrap;html=1;flipV=1;flipH=0;" parent="BMXMZfDa0N_tZ35hjSIX-74" vertex="1">
          <mxGeometry x="596" y="39.73365591397851" width="120" height="80.64516129032258" as="geometry" />
        </mxCell>
        <mxCell id="BMXMZfDa0N_tZ35hjSIX-69" value="&lt;span style=&quot;color: rgb(50, 50, 50); font-family: &amp;quot;Microsoft YaHei&amp;quot;, 微软雅黑, Arial; font-size: 13px; background-color: rgba(255, 255, 255, 0.01);&quot;&gt;minio03&lt;/span&gt;&lt;div style=&quot;resize: none; outline: none; font-size: 13px; color: rgb(50, 50, 50); font-family: &amp;quot;Microsoft YaHei&amp;quot;, 微软雅黑, Arial;&quot;&gt;10.25.1.206&lt;div style=&quot;resize: none; outline: none; font-size: inherit;&quot;&gt;4C/8G&lt;/div&gt;&lt;/div&gt;" style="rounded=0;whiteSpace=wrap;html=1;flipV=1;flipH=0;" parent="BMXMZfDa0N_tZ35hjSIX-74" vertex="1">
          <mxGeometry x="405" y="41.37999999999988" width="120" height="80.64516129032258" as="geometry" />
        </mxCell>
        <mxCell id="BMXMZfDa0N_tZ35hjSIX-70" value="&lt;span style=&quot;color: rgb(50, 50, 50); font-family: &amp;quot;Microsoft YaHei&amp;quot;, 微软雅黑, Arial; font-size: 13px; background-color: rgba(255, 255, 255, 0.01);&quot;&gt;minio02&lt;/span&gt;&lt;br style=&quot;color: rgb(50, 50, 50); font-family: &amp;quot;Microsoft YaHei&amp;quot;, 微软雅黑, Arial; font-size: 13px;&quot;&gt;&lt;span style=&quot;color: rgb(50, 50, 50); font-family: &amp;quot;Microsoft YaHei&amp;quot;, 微软雅黑, Arial; font-size: 13px; background-color: rgba(255, 255, 255, 0.01);&quot;&gt;10.25.1.205&lt;/span&gt;&lt;br style=&quot;color: rgb(50, 50, 50); font-family: &amp;quot;Microsoft YaHei&amp;quot;, 微软雅黑, Arial; font-size: 13px;&quot;&gt;&lt;span style=&quot;color: rgb(50, 50, 50); font-family: &amp;quot;Microsoft YaHei&amp;quot;, 微软雅黑, Arial; font-size: 13px; background-color: rgba(255, 255, 255, 0.01);&quot;&gt;4C/8G&lt;/span&gt;" style="rounded=0;whiteSpace=wrap;html=1;flipV=1;flipH=0;" parent="BMXMZfDa0N_tZ35hjSIX-74" vertex="1">
          <mxGeometry x="212.5" y="42.36365591397839" width="120" height="80.64516129032258" as="geometry" />
        </mxCell>
        <mxCell id="BMXMZfDa0N_tZ35hjSIX-72" value="&lt;span style=&quot;color: rgb(50, 50, 50); font-family: &amp;quot;Microsoft YaHei&amp;quot;, 微软雅黑, Arial; font-size: 13px; background-color: rgba(255, 255, 255, 0.01);&quot;&gt;minio01&lt;/span&gt;&lt;div style=&quot;resize: none; outline: none; font-size: 13px; color: rgb(50, 50, 50); font-family: &amp;quot;Microsoft YaHei&amp;quot;, 微软雅黑, Arial;&quot;&gt;10.25.1.201&lt;div style=&quot;resize: none; outline: none; font-size: inherit;&quot;&gt;4C/8G&lt;/div&gt;&lt;/div&gt;" style="rounded=0;whiteSpace=wrap;html=1;flipV=1;flipH=0;" parent="BMXMZfDa0N_tZ35hjSIX-74" vertex="1">
          <mxGeometry x="20" y="39.73365591397828" width="120" height="80.64516129032258" as="geometry" />
        </mxCell>
        <mxCell id="BMXMZfDa0N_tZ35hjSIX-75" value="" style="edgeStyle=none;orthogonalLoop=1;jettySize=auto;html=1;rounded=0;entryX=0.5;entryY=0;entryDx=0;entryDy=0;exitX=0;exitY=0.5;exitDx=0;exitDy=0;strokeWidth=2;strokeColor=#9933FF;" parent="1" source="E1ot99NzgPepSdz1U0I7-4" target="BMXMZfDa0N_tZ35hjSIX-5" edge="1">
          <mxGeometry width="80" relative="1" as="geometry">
            <mxPoint x="-490" y="320" as="sourcePoint" />
            <mxPoint x="-410" y="320" as="targetPoint" />
            <Array as="points" />
          </mxGeometry>
        </mxCell>
        <mxCell id="BMXMZfDa0N_tZ35hjSIX-76" value="&lt;div style=&quot;&quot;&gt;&lt;span style=&quot;text-wrap-mode: nowrap;&quot;&gt;h5.whctg.com&lt;/span&gt;&lt;/div&gt;&lt;div style=&quot;&quot;&gt;&lt;font style=&quot;&quot;&gt;&lt;span style=&quot;text-wrap-mode: nowrap;&quot;&gt;H5入口 千里山海智慧旅游&lt;/span&gt;&lt;br&gt;&lt;span style=&quot;text-wrap-mode: nowrap;&quot;&gt;check-wlh5.whctg.com&lt;/span&gt;&lt;/font&gt;&lt;/div&gt;&lt;div style=&quot;&quot;&gt;&lt;font style=&quot;&quot;&gt;&lt;span style=&quot;text-wrap-mode: nowrap;&quot;&gt;核销H5&lt;/span&gt;&lt;/font&gt;&lt;/div&gt;" style="whiteSpace=wrap;html=1;verticalAlign=middle;fillColor=#fad9d5;strokeColor=#ae4132;rounded=0;" parent="1" vertex="1">
          <mxGeometry x="-950" y="30.119999999999994" width="200" height="58.88" as="geometry" />
        </mxCell>
        <mxCell id="BMXMZfDa0N_tZ35hjSIX-77" value="" style="edgeStyle=none;orthogonalLoop=1;jettySize=auto;html=1;rounded=0;entryX=0;entryY=0.5;entryDx=0;entryDy=0;exitX=1;exitY=0.5;exitDx=0;exitDy=0;strokeColor=#FF0000;strokeWidth=2;" parent="1" source="BMXMZfDa0N_tZ35hjSIX-76" target="umgCvMGF8Q4jKKfUTwUB-1" edge="1">
          <mxGeometry width="80" relative="1" as="geometry">
            <mxPoint x="-440" y="-360" as="sourcePoint" />
            <mxPoint x="-360" y="-360" as="targetPoint" />
            <Array as="points" />
          </mxGeometry>
        </mxCell>
        <mxCell id="RdISGUF3RuTbAxOD1BtP-1" value="&lt;font style=&quot;font-size: 18px;&quot;&gt;&lt;b&gt;智慧大脑&lt;/b&gt;&lt;/font&gt;" style="rounded=0;whiteSpace=wrap;html=1;fillColor=#fff2cc;strokeColor=#d6b656;verticalAlign=top;" vertex="1" parent="1">
          <mxGeometry x="-2650" y="610" width="230" height="630" as="geometry" />
        </mxCell>
        <mxCell id="RdISGUF3RuTbAxOD1BtP-2" value="&lt;div style=&quot;resize: none; outline: none; font-size: 13px; color: rgb(50, 50, 50); font-family: &amp;quot;Microsoft YaHei&amp;quot;, 微软雅黑, Arial;&quot;&gt;可视化&lt;/div&gt;&lt;span style=&quot;color: rgb(50, 50, 50); font-family: &amp;quot;Microsoft YaHei&amp;quot;, 微软雅黑, Arial; font-size: 13px; background-color: rgba(255, 255, 255, 0.01);&quot;&gt;wyn&lt;/span&gt;&lt;br style=&quot;color: rgb(50, 50, 50); font-family: &amp;quot;Microsoft YaHei&amp;quot;, 微软雅黑, Arial; font-size: 13px;&quot;&gt;&lt;span style=&quot;color: rgb(50, 50, 50); font-family: &amp;quot;Microsoft YaHei&amp;quot;, 微软雅黑, Arial; font-size: 13px; background-color: rgba(255, 255, 255, 0.01);&quot;&gt;10.25.1.172&lt;/span&gt;&lt;br style=&quot;color: rgb(50, 50, 50); font-family: &amp;quot;Microsoft YaHei&amp;quot;, 微软雅黑, Arial; font-size: 13px;&quot;&gt;&lt;span style=&quot;color: rgb(50, 50, 50); font-family: &amp;quot;Microsoft YaHei&amp;quot;, 微软雅黑, Arial; font-size: 13px; background-color: rgba(255, 255, 255, 0.01);&quot;&gt;4C/16G&lt;/span&gt;" style="rounded=0;whiteSpace=wrap;html=1;" vertex="1" parent="1">
          <mxGeometry x="-2630" y="700.0028571428571" width="168" height="71" as="geometry" />
        </mxCell>
        <mxCell id="RdISGUF3RuTbAxOD1BtP-3" value="&lt;div style=&quot;resize: none; outline: none; font-size: 13px; color: rgb(50, 50, 50); font-family: &amp;quot;Microsoft YaHei&amp;quot;, 微软雅黑, Arial;&quot;&gt;&lt;div style=&quot;resize: none; outline: none;&quot;&gt;可视化数据库&lt;/div&gt;&lt;span style=&quot;background-color: rgba(255, 255, 255, 0.01);&quot;&gt;wyn-mysql8&lt;/span&gt;&lt;br&gt;&lt;span style=&quot;background-color: rgba(255, 255, 255, 0.01);&quot;&gt;10.25.1.247&lt;/span&gt;&lt;br&gt;&lt;span style=&quot;background-color: rgba(255, 255, 255, 0.01);&quot;&gt;8C/16G&lt;/span&gt;&lt;/div&gt;" style="rounded=0;whiteSpace=wrap;html=1;" vertex="1" parent="1">
          <mxGeometry x="-2630" y="811.5742857142857" width="168" height="71" as="geometry" />
        </mxCell>
        <mxCell id="RdISGUF3RuTbAxOD1BtP-4" value="&lt;div style=&quot;resize: none; outline: none; font-size: 13px; color: rgb(50, 50, 50); font-family: &amp;quot;Microsoft YaHei&amp;quot;, 微软雅黑, Arial;&quot;&gt;&lt;div style=&quot;resize: none; outline: none;&quot;&gt;&lt;div style=&quot;resize: none; outline: none;&quot;&gt;metabase&lt;/div&gt;&lt;span style=&quot;background-color: rgba(255, 255, 255, 0.01);&quot;&gt;lgd-metabase-79&lt;/span&gt;&lt;br&gt;&lt;span style=&quot;background-color: rgba(255, 255, 255, 0.01);&quot;&gt;10.25.1.79&lt;/span&gt;&lt;br&gt;&lt;span style=&quot;background-color: rgba(255, 255, 255, 0.01);&quot;&gt;4C/8G&lt;/span&gt;&lt;/div&gt;&lt;/div&gt;" style="rounded=0;whiteSpace=wrap;html=1;" vertex="1" parent="1">
          <mxGeometry x="-2630" y="1021.5742857142857" width="168" height="71" as="geometry" />
        </mxCell>
        <mxCell id="RdISGUF3RuTbAxOD1BtP-5" value="&lt;div style=&quot;resize: none; outline: none; font-size: 13px; color: rgb(50, 50, 50); font-family: &amp;quot;Microsoft YaHei&amp;quot;, 微软雅黑, Arial;&quot;&gt;&lt;div style=&quot;resize: none; outline: none;&quot;&gt;metabase&lt;/div&gt;&lt;span style=&quot;background-color: rgba(255, 255, 255, 0.01);&quot;&gt;lgd-metabase-79&lt;/span&gt;&lt;br&gt;&lt;span style=&quot;background-color: rgba(255, 255, 255, 0.01);&quot;&gt;10.25.1.78&lt;/span&gt;&lt;br&gt;&lt;span style=&quot;background-color: rgba(255, 255, 255, 0.01);&quot;&gt;4C/8G&lt;/span&gt;&lt;/div&gt;" style="rounded=0;whiteSpace=wrap;html=1;" vertex="1" parent="1">
          <mxGeometry x="-2630" y="910.0028571428571" width="168" height="71" as="geometry" />
        </mxCell>
      </root>
    </mxGraphModel>
  </diagram>
</mxfile>
